<?xml version="1.0" encoding="UTF-8"?>
<svg id="Layer_1" data-name="Layer 1" xmlns="http://www.w3.org/2000/svg" viewBox="0 0 100 100">
  <defs>
    <style>
      .cls-1 {
        fill: #c63636;
      }
    </style>
  </defs>
  <path d="M67.21,31.07c-.46-.02-.93.03-1.39,0-7.05-.4-14.07-.39-21.12-.16-.5.02-.85-.15-1.12-.17-.05,0,0,.15-.15.17-.66.09-1.61-.05-2.3-.06-.42,0-.88.08-1.32-.03l.2,2.58c.4,3.59.18,7.2.12,10.81-.08,4.16-.27,8.37-.16,12.56.08,3,.42,6.04.48,9.05.02,1.19-.02,2.36-.16,3.54.22.06.48-.09.67-.08.43.03.58.08,1.11.07,3.86-.06,7.71-.27,11.6-.43,3.36-.14,6.9-.34,10.33-.52.55-.03,2.63.2,2.8-.37.08-.58.04-1.24.1-1.81.08-.72.17-1.65.27-2.34.05-.3.11-.78.49-.79.63-.02.3.43.27.75-.06.76-.12,1.55-.08,2.29-.19.75-.1,1.66-.23,2.39-.06.35-1.28.56-1.63.6-3.94.36-7.99.35-11.92.49l-.08.15c-.07-.02-.16-.07-.23-.07-4.56.43-9.19.24-13.75.22-.49,0-1.38.2-1.81.15-.35-.04-1.25-.44-1.67-.55-4.61-1.24-8.86-2.38-13.13-4.58-.52-.27-1.38-.6-1.43-1.26-.02-.23-.01-.52-.03-.78-.33-5.51-1.02-11.04-.5-16.55.46-.6,1.04-1.14,1.61-1.65,2.77-2.51,5.69-4.95,8.5-7.47,2.62-2.34,5.07-4.92,8-6.94.34-.17,2.34.06,2.93.06,3.41,0,6.78-.34,10.25-.35,4.86-.02,9.69-.1,14.53.37.7.08.68.89.76,1.46.1.7.11,1.44.16,2.14.03.38.3.96-.04,1.24s-.58.08-.67-.29c-.19-.78-.29-2.57-.31-3.41,0-.14.09-.29.06-.44ZM39.09,32.58v-.44s-.08-.12-.08-.12c.03.2-.19.47.08.56ZM38.45,32.5c-.29-.26-.33.52-.04.16.04-.05.06-.14.04-.16ZM38.85,34.65c.07-.5.19-1,.16-1.51l-.24,1.15.08.36ZM37.74,34.57l-.04-.32c-.12.09-.14.17-.12.32h.16ZM37.58,35.21l.08-.48-.24.44.16.04ZM34.48,35.6l.08-.64c-.19.04-.25.56-.08.64ZM39.48,38.7c-.23-.06-.17.17-.19.32-.13.78-.19,1.67-.28,2.46l.29-1.1.18-1.68ZM29.32,39.58l-.08.36.12.12.12-.12-.08-.36h-.08ZM28.6,41.16l.08-.64-.24.13.17.5ZM30.65,51.64c.02-.05-.08-.2-.06-.33.48-2.24.64-4.7.87-7.01.09-.96.15-1.94.24-2.9-.17.16-.31.71-.35.95-.02.12.04.23.03.35-.38,2.83-.87,5.66-1,8.53,0,.09.01.78.13.66-.08-.2.13-.24.14-.25ZM37.1,41.56c-.21-.02-.13-.01-.16.12-.07.4-.13.83-.08,1.23.28-.28.15-.95.24-1.35ZM24.95,49.75c.05-.91.12-1.82.26-2.72.17-1.07.57-2.06.65-3.12.01-.15-.08-.35-.04-.52-.12-.02-.11.14-.13.22-.44,1.3-.53,2.6-.66,3.95-.06.66-.17,1.22-.16,1.91,0,.09-.06.3.08.28ZM36.07,54c.06-.24,0-.96,0-1.27,0-.14.07-1.05.09-1.1.03-.09.14-.13.23-.13l-.24-.08.48-5.76c.03-.35.3-1.6.23-1.81-.03-.1-.12-.15-.23-.13-.08.94-.3,1.88-.4,2.82-.2,1.98-.14,3.99-.36,5.95l.04,1.63s.15-.09.16-.12ZM23.12,45.38c-.2-.23-.38.76-.2.87l.2-.87ZM35.43,46.33c-.04-.24.21-.65-.08-.79.03.24-.02.46-.06.69-.03.15,0,.1.14.1ZM39.09,47.04v-.12s-.24-.2-.24-.2c-.02.15,0,.23.12.32h.12ZM32.73,47.2h.12s.12-.12.12-.12l-.2-.28-.12.12.08.28ZM32.65,49.27v-1.11l-.13.69c.1.16-.16.49.13.42ZM28.6,52.84c.1-1,.13-2.03.18-3.04.02-.36.21-.68.06-1.09-.11.05-.13.41-.15.53-.13,1.08-.21,2.24-.17,3.33,0,.1-.06.3.08.28ZM38.77,49.19v-.48h-.08v.48h.08ZM33.45,50.14c.03-.17.06-.31,0-.48h-.08s0,.48,0,.48h.08ZM32.49,51.33c0-.22,0-.45,0-.68,0-.1.06-.3-.08-.28.09.29-.2.78.08.95ZM33.45,50.46l-.16.12-.32,5.13.46-1.24-.07-2.06.09-1.95ZM32.49,51.57c-.37-.02-.11.39-.1.5,0,.12-.1.3-.06.46.27-.19.12-.67.16-.95ZM34.72,52.21c.29,0,.29-.24,0-.24v.24ZM30.59,59.44l.12-5.96c-.45,1.71-.39,3.52-.27,5.27l.15.68ZM29.47,54.27v-.56h-.08v.56h.08ZM35.91,56.26c.18-.04.11-.11.11-.22,0-.63.04-1.22.05-1.85-.05,0-.16.11-.16.12v1.95ZM29.39,55.94c.05-.17.15-.32-.08-.4-.04.15-.06.25,0,.4h.08ZM29.32,58.33c.01-.16.15-.49-.08-.56l.08.56ZM27.33,62.78c-.08-1.01-.33-1.99-.46-2.99-.04-.27-.02-.57-.05-.82-.01-.09,0-.33-.12-.32.1,1.24.17,2.53.42,3.75.03.13.07.34.22.38ZM29.32,59.84v-.48h-.08v.48h.08ZM33.53,61.58c.18-.04.11-.12.11-.22,0-.67-.05-1.34-.03-2.01-.16.03-.12.13-.13.23-.08.54.16,1.4.06,1.99ZM23.68,64.37l-.87-4.77c.05,1.32.18,2.69.42,3.99.05.29.07.85.45.78ZM29.24,60.15v1.19l.15-.92-.15-.28ZM24.47,61.11l-.16-.71c0,.19-.03.59.16.71ZM22.72,63.97c-.13-.77-.21-1.55-.34-2.32-.02-.1-.01-.38-.13-.38-.01.89.11,1.78.23,2.65l.25.05ZM25.65,64.78c-.06-.04-.22,0-.35-.09-.2-.14-.43-1.48-.49-1.81-.05-.28-.01-.71-.05-.94-.02-.1-.16-.15-.19-.25-.04-.14.06-.41-.09-.42.04,1.24.5,2.44.47,3.69l.88.29c-.08-.1-.12-.42-.18-.46ZM29.24,62.7c.22-.18.23-.83.04-1.03l-.04,1.03ZM29.39,63.57l-.08-.79c.01.16-.04.32-.03.49,0,.08-.01.33.11.31ZM30.67,66.03l-.09-1.22-.15-.61c-.05.47-.04,1.16.07,1.63.03.14-.07.24.16.2ZM28.68,66.43c.06-.05.01-1.4-.24-1.51,0,.28-.21,1.32,0,1.47l.24.03ZM27.57,65.32h-.24c.02.23-.13.38-.24.56l.63.24-.16-.79ZM37.9,69.13c.12-.13-.03-1.27-.08-1.46-.04-.13-.09-.24-.23-.28,0,.48.03.98.09,1.46.02.14.04.34.23.28Z"/>
  <path d="M71.21,37.08c.45.43.73.82,1.14,1.29l1.8-.8,2.24-.85c2.37-.02,4.72,0,7.07.24.62.06,1.44-.07,1.94.36.45.38.28,1.8.32,2.38.36,5.26.42,10.87.53,16.22.01.58.08,1.79.03,2.29-.01.11-.13.19-.13.24,0,.07.16.17.18.31.06.6-.06,1.96-.31,2.52-.14.32-.79.4-1.14.45-2.19.33-4.75.24-6.99.25-1.03,0-.96.05-1.98-.24-1.15-.32-2.35-.61-3.48-.97-.63-.2-1.24-.53-1.89-.69l-.08,1.93s-.62.26-.7.28c-.8.15-1.93,0-2.76.04-1.5.06-2.98.14-4.45.13-1.74,0-2.5.2-4.07-.69-2.3-1.31-4.49-2.77-6.58-4.39-.57-.44-1.16-.89-1.74-1.36-.38-.31-1.27-1.04-1.52-1.42-.21-.33-.03-.35-.04-.59-.14-1.82-.07-3.69,0-5.48.03-.77.04-3.75.43-4.26.03-.04.27-.24.35-.31.87-.76,1.91-1.45,2.83-2.16,2.5-1.94,5.01-3.92,7.65-5.69l3.15-.07c1.6.24,3.23.12,4.86.21.7.04,2.43.12,2.97.45.19.11.23.29.35.4ZM70.82,37.47c-.29-.27-.43-.31-.83-.4-1.69-.39-4.08-.14-5.84-.19l-4.17-.24c.11.95-.08,1.93-.14,2.9-.33,4.91-.36,9.88-.29,14.86.03,1.91.2,3.9.2,5.8,0,.47-.22.97.01,1.45.05.06.18.09.25.09,2.11,0,4.31-.08,6.43-.23l.09.17c.46-.3,2.99-.04,3.12-.25v-3.05c.11-.98.07-2.02.16-3.02.01-.11,0-.21.12-.26.74.05,2.97,2.36,3.42,2.36.39,0,1.12-.97,1.42-1.24.22-.2.51-.38.73-.58s.44-.68.79-.64c.33.12.48.42.52.76.18,1.63,0,3.33.11,4.93,0,.13.03.56.09.61.29.08.57-.08.86-.09,1.93-.07,3.88,0,5.8-.16.57-.05,1.15-.1,1.7-.25l-.14-5.43.23-.16c-.36-.14-.16-.22-.18-.4-.22-1.77-.11-3.91-.14-5.73-.05-2.89-.11-5.77-.13-8.67,0-.58.17-1.91-.02-2.38-.04-.09-.2-.31-.3-.34-2.8-.21-5.6-.22-8.39-.24-.98.75-1.74,1.87-2.54,2.82-.4.26-.69.16-1.01-.18-.68-.73-1.29-1.98-1.95-2.62ZM74.36,38.23h-.24c0,.29.24.29.24,0ZM54.9,41.16h-.24s0,.24,0,.24l.24-.08v-.16ZM58.95,42.44v-.48h-.08v.48h.08ZM54.82,42.12c-.23-.04-.13.05-.17.18-.05.2-.09.4-.07.61.1.13.14,0,.16-.12.03-.22-.02-.45.08-.68ZM58.95,42.83c-.13-.02-.2.02-.2.16,0,.63.05,1.27-.03,1.9l.16-.76.08-1.31ZM55.14,43.39c.29,0,.29-.24,0-.24v.24ZM51.32,45.69c0-.67.06-1.41.29-2.03l-.17-.28c-.18-.04-.13.21-.14.33-.06.56-.1,1.15-.12,1.72,0,.13,0,.22.14.25ZM52.83,51.65l.48-8.02c-.27.17-.16.68-.2.96-.28,1.98-.57,4.64-.44,6.64,0,.11,0,.42.16.43ZM50.69,44.5v-.48h-.08v.48h.08ZM50.05,45.53l.08-1.11c-.21.14-.19.65-.19.89,0,.1-.07.17.11.22ZM56.41,45.38c.29,0,.29-.24,0-.24v.24ZM58.07,46.33l.08-.64c-.19.04-.25.56-.08.64ZM57.92,47.6c.25-.21.1-.81.16-1.11l-.15.53v.58ZM54.26,50.38c-.1-1.04.25-2.07.04-3.1-.09.24.02.5-.28.6-.03.19.15.05.17.23.03.36-.09,1.06-.09,1.44,0,.25.02.46,0,.71,0,.16,0,.13.15.12ZM57.91,47.84s-.24.07-.24.12c0,.22.36,0,.24-.12ZM50.05,50.14v-1.47c0-.15.14-.53.08-.68h-.08c.03.1-.08.23-.08.28v1.87h.08ZM56.72,48.47s.24-.07.24-.12c0-.22-.36,0-.24.12ZM52.83,51.81h-.16c-.01.15-.02.3.12.4l.04-.4ZM53.94,54.71c.02-.65-.01-1.3,0-1.95-.14-.02-.08.18-.08.28-.01.32.01.64,0,.96-.01.33-.24.77.04,1.07.03-.09.04-.26.04-.36ZM49.57,53.08v1.47c0,.26.34.53.32.24-.04-.5-.1-1.09-.16-1.59-.01-.12-.06-.24-.16-.12ZM56.56,56.5c0-.19.06-1.91-.04-1.91-.03.44-.13.87-.12,1.31,0,.13.03.53.16.59ZM52.43,55.39v1.39s.25.3.32.16l-.32-1.55ZM51.8,56.02h-.16c-.02.15,0,.23.12.32l.04-.32ZM54.24,56.52c-.44-.21-.2.66-.14.89.03.11,0,.25.16.28,0-.25-.15-.83.15-.88v-.11c-.09-.02-.15-.17-.17-.18ZM58.79,58.8c.02-.14,0-.27-.02-.41-.01-.09-.02-.39-.13-.38-.02.14,0,.27.02.41.01.09.02.39.13.38ZM58.15,58.64l-.08-.32h-.08s0,.32,0,.32h.16ZM58.47,60.79c-.07-.57-.14-1.21-.26-1.77-.02-.08-.03-.24-.14-.22-.07.21.07.6.05.76-.01.08-.15.14-.19.25-.05.18-.15.58,0,.71l.53.26ZM72.22,59.84c.16-.04.18-.17.16-.32-.16.04-.18.17-.16.32ZM75.71,60.95l-.16-.95c.05.31-.09.58-.16.87l.32.08Z"/>
  <path d="M51.42,25.33s-.01-.13-.02-.13c-.04-.03-.11.12-.19.12-.44.03-1.05-.13-1.51-.16-1.69-.12-3.38-.22-5.08-.28-.83-.03-1.69.08-2.51-.08.27.36.65.47.95.83.85,1.02,1.47,2.66,1.83,3.93-.04.04-1.02-.03-.99-.24l-.24.16h-4.01s.52-1.98.52-1.98l-.76,2.1c-.49.35-.99.71-1.47,1.08-.53.41-1.15.94-1.78,1.31l-2.11,1.78.28-1.59-2.94.16,1.66,2.28c.08.31-1.08,1.02-1.3,1.29l-.12-.32c.14.58-.58.81-.92,1.19-.18.06-.05-.3-.04-.36.03-.14.11-.25.12-.36,0-.06-.01-.54-.12-.55l-.28,1.59-7.11,6.28c-.18-.14.04-2.24.09-2.57.47-3.44,1.53-6.69,4.73-8.46,1.66-.92,4.43-.54,6.29-.82.14-.09.68-2.21.8-2.57.61-1.73,2.11-4.04,4.02-4.4,3.86-.72,7.87-.32,11.75-.01,1.59.13,4.79.14,6.12.87,1.09.6,1.53,2.62,1.53,3.76-.76.73-.74-1.07-.88-1.55-.15-.52-.55-1.3-.98-1.64-.34-.27-.99-.34-1.43-.4-.93-.12-1.86-.1-2.77-.17-.17-.01-1.08-.07-1.13-.11ZM37.26,28.37l.79-2.38c-.13.05-.24.17-.3.3-.19.41-.44,1.35-.56,1.83-.02.08-.08.28.06.26ZM36.54,30.76l.64-2.3c-.14.02-.14.16-.18.26-.18.42-.42,1.26-.52,1.71-.02.08-.09.35.06.34ZM43.22,28.53c-.06.05-.09.36.12.32.32-.07.1-.47-.12-.32ZM30.35,33.06c-.25-.06-.3.1-.32.32.1-.1.24-.2.32-.32ZM28.2,33.38c-.34,0-.36.46-.4.71.17,0,.43-.68.4-.71ZM31.94,34.25l-.18.1c-.14.32-.03.49.1.78.33-.24.24-.58.08-.87ZM29.39,36.48l.08-.63c-.16.03-.25.59-.08.63Z"/>
  <path d="M39.41,72.79l.15-.69-.06-1.3,2.14-.08.16,4.53,2.11-.09.19.17c-.06-.2.43-.22.6-.24,3.85-.3,7.67-.42,11.52-.79.87-.08,1.84.14,2.48-.61.21-.86.3-1.84.58-2.68.12-.36.36-.98.78-.55l-.41,2.51c-.15.5-.27,1.6-.85,1.77-3.32.29-6.64.71-9.98.75-2.35.05-5.07.6-7.36.22-3.72-.61-7.48-2.24-11.11-3.27-.48-.29-.63-.72-.88-1.19l-1.11-3.45c.12-.09.7.2.83.32l.6,1.98c.15.01.07-.25.06-.34-.08-.45-.35-1.03-.5-1.49-.04-.12-.07-.08.08-.08l6,1.87.08.76c.2-.08-.05-.57.2-.63.12-.03,1.82.47,2.16.53.19.03.38.03.57.02.07.08-.09.9.12,1.03l.12-1.03.71.08v1.99ZM37.66,72.79c-.05-.18.1-.61-.08-.71.05.18-.11.6.08.71Z"/>
  <path class="cls-1" d="M44.91,37.56c-.07,0-.15.02-.23.02-.11,0-.22-.01-.32-.03-.04,0-.08-.02-.11-.03-.25-.03-.43-.16-.58-.35-.05-.07-.12-.12-.16-.19-.06-.09-.1-.19-.14-.29-.04-.09-.08-.18-.1-.28-.09-.31-.09-.61.12-.88.01-.02.03-.04.04-.06.08-.16.22-.25.4-.26.05,0,.09-.03.12-.07.13-.18.32-.27.52-.32.2-.05.4-.07.6-.08.1,0,.21.02.31.04.04,0,.09.02.11.05.09.11.23.08.34.11.14.04.26.11.3.25.04.11.06.22.06.34,0,.16.06.3.11.44.02.06.04.13.04.19-.04.25-.07.51-.27.7-.02.01-.02.04-.03.06-.07.16-.16.31-.31.41-.24.16-.5.28-.81.25Z"/>
</svg>