<svg xmlns="http://www.w3.org/2000/svg" xmlns:xlink="http://www.w3.org/1999/xlink" width="89.446" height="91.407" viewBox="0 0 89.446 91.407">
  <defs>
    <clipPath id="clip-path">
      <rect id="Rectangle_5" data-name="Rectangle 5" width="56.231" height="72.141" fill="currentColor"/>
    </clipPath>
  </defs>
  <g id="Group_6" data-name="Group 6" transform="translate(46.371) rotate(40)">
    <g id="Group_4" data-name="Group 4" clip-path="url(#clip-path)" fill="currentColor">
      <path id="Path_21" data-name="Path 21" d="M125.2,109.745q-.053,11.008-.105,22.015l1.421-.193c-3.258-8.811.018-18.189-.993-27.263-.086-.768-1.21-1.051-1.434-.194a46.133,46.133,0,0,0-1.107,12.682c.094,4.8.257,9.59.407,14.385l1.543-.209q-.827-6.072-1.551-12.156-.334-2.8-.644-5.594c-.186-1.678-.881-4.048.1-5.566l-1.49-.4a62.557,62.557,0,0,0,.905,22.429c.232.964,1.627.543,1.464-.4a73.235,73.235,0,0,1-.769-22.026c.109-.847-1.1-1-1.49-.4a5.723,5.723,0,0,0-.584,3.975c.246,2.4.527,4.8.81,7.194q.791,6.7,1.731,13.373c.123.88,1.573.665,1.543-.209-.156-4.54-.315-9.08-.431-13.621A47.9,47.9,0,0,1,125.5,104.5l-1.434-.194c1.1,9.179-2.377,18.751,1.059,27.648.278.72,1.429.678,1.421-.192q-.105-11.008-.211-22.015a.566.566,0,0,0-1.131,0" transform="translate(-70.312 -60.315)"/>
      <path id="Path_22" data-name="Path 22" d="M93.937,157.8q-9.166-2.592-18.485-4.579c-.718-.155-1.223.853-.52,1.234,5.488,2.968,11.895,3.082,17.657,5.291l.185-1.371a156.673,156.673,0,0,1-19.6-4,.77.77,0,0,0-.409,1.483c6.5,1.929,13.087,3.559,19.723,4.95v-1.425c-1.876.645-4.126-.31-5.972-.786q-2.922-.755-5.818-1.6-5.6-1.642-11.089-3.63c-.887-.319-1.286.954-.6,1.433a9.5,9.5,0,0,0,4.61,1.82c.725.072.757-.969.161-1.191a16.564,16.564,0,0,1-3.98-1.982l-.6,1.432q6.256,2.225,12.649,4.028,3.1.868,6.229,1.627c1.63.4,3.178.845,4.811.278.64-.222.763-1.262,0-1.425-6.634-1.419-13.195-3.109-19.707-5.008l-.409,1.483a154.194,154.194,0,0,0,20.013,3.909c.839.09.863-1.112.185-1.371-5.662-2.163-11.907-2.312-17.347-5.111l-.52,1.234q9.358,1.815,18.556,4.319a.54.54,0,0,0,.287-1.041" transform="translate(-39.978 -89.208)"/>
      <path id="Path_23" data-name="Path 23" d="M50.856,65.577Q27.6,33.521,3.087,2.395c-.529-.67-1.543.185-1.152.889,6.556,11.8,15.937,21.568,24.724,31.7A162.476,162.476,0,0,1,39.478,51.6c3.708,5.59,7.335,11.281,12.387,15.777l1.112-1.112c-10.173-8.831-16.5-20.844-24.5-31.481-8.491-11.293-18.959-20.962-27-32.612l-1.23.949A647.092,647.092,0,0,1,46.82,64.137l1.372-.8Q36.443,46.381,24.427,29.61,18.434,21.217,12.38,12.868c-1.612-2.223-3.121-4.693-5.26-6.456C5.248,4.869,2.155,3.542,2.051.787l-1.34.555q14.1,16.443,27.9,33.139,6.742,8.163,13.408,16.388c4.31,5.325,8.511,10.763,11.415,17.007l1.211-.934a81.373,81.373,0,0,1-14.356-17.95l-1.178.909A88.386,88.386,0,0,1,54.219,71.374l1.325-.775a75.374,75.374,0,0,0-7.285-8.563c-.6-.6-1.739.206-1.213.936l6.026,8.363c.558.774,1.856.032,1.293-.756L48.38,62.193l-1.213.937a75.615,75.615,0,0,1,7.052,8.245.768.768,0,0,0,1.325-.775A89.727,89.727,0,0,0,40.168,48.84a.753.753,0,0,0-1.178.909A85.373,85.373,0,0,0,53.551,68.032a.774.774,0,0,0,1.211-.934c-2.71-5.939-6.621-11.134-10.692-16.2-4.562-5.673-9.188-11.3-13.822-16.91Q16.2,16.974,1.82.232A.792.792,0,0,0,.48.787c.08,2.074,1.269,3.475,2.837,4.724C4.333,6.32,5.455,7,6.428,7.862a22.8,22.8,0,0,1,3.152,3.79q6.315,8.671,12.557,17.395Q34.627,46.488,46.82,64.137c.577.833,1.947.052,1.372-.8A650.477,650.477,0,0,0,1.355,2.015C.78,1.347-.382,2.23.125,2.964,8.3,14.806,18.979,24.6,27.541,36.137c7.867,10.6,14.208,22.507,24.325,31.24.761.657,1.873-.438,1.112-1.112-5.332-4.719-9.038-10.772-12.985-16.619A161.032,161.032,0,0,0,28.174,34.461C19.329,24.237,9.812,14.447,3.2,2.543l-1.152.889q24.443,30.956,47.874,62.69c.407.553,1.343.02.932-.545" transform="translate(0 0)"/>
    </g>
  </g>
</svg>
