<svg id="Group_3" data-name="Group 3" xmlns="http://www.w3.org/2000/svg" xmlns:xlink="http://www.w3.org/1999/xlink" width="400.01" height="466.254" viewBox="0 0 400.01 466.254">
  <defs>
    <clipPath id="clip-path">
      <rect id="Rectangle_4" data-name="Rectangle 4" width="400.01" height="466.254"/>
    </clipPath>
  </defs>
  <g id="Group_2" data-name="Group 2" clip-path="url(#clip-path)">
    <path id="Path_4" data-name="Path 4" d="M282.481,40.28c-2.833-.143-5.73.179-8.563.018-43.334-2.466-86.451-2.4-129.81-.974-3.069.1-5.229-.937-6.854-1.017-.322-.016.026.907-.943,1.038-4.076.549-9.891-.288-14.112-.347-2.557-.036-5.437.476-8.132-.185l1.224,15.857c2.48,22.084,1.125,44.232.718,66.411-.468,25.539-1.662,51.446-.991,77.169.482,18.461,2.584,37.11,2.964,55.613a155.759,155.759,0,0,1-.992,21.755c1.37.38,2.961-.551,4.128-.472a57.572,57.572,0,0,0,6.836.453c23.738-.365,47.407-1.648,71.312-2.672,20.66-.885,42.388-2.1,63.474-3.181,3.35-.173,16.165,1.234,17.2-2.278.478-3.556.215-7.645.591-11.127.477-4.431,1.014-10.112,1.675-14.4.287-1.856.648-4.776,2.987-4.869,3.846-.152,1.84,2.635,1.674,4.606a105.753,105.753,0,0,0-.516,14.088c-1.167,4.6-.617,10.19-1.442,14.713-.4,2.18-7.881,3.469-10.008,3.663-24.2,2.2-49.123,2.157-73.256,2.983l-.482.945c-.454-.095-.984-.447-1.423-.4-28.005,2.669-56.458,1.5-84.485,1.347-2.982-.017-8.5,1.233-11.1.9-2.139-.276-7.673-2.7-10.28-3.4-28.331-7.613-54.469-14.6-80.707-28.16-3.225-1.667-8.481-3.688-8.781-7.719-.1-1.4-.071-3.184-.169-4.816-2.03-33.84-6.284-67.867-3.049-101.67a82.7,82.7,0,0,1,9.877-10.141C28.084,108.557,46,93.568,63.3,78.125,79.406,63.742,94.469,47.9,112.43,35.455c2.108-1.04,14.379.375,18,.378,20.94.015,41.677-2.084,62.961-2.178,29.842-.132,59.514-.641,89.275,2.277,4.278.5,4.18,5.48,4.691,8.992.628,4.315.658,8.853.991,13.169.18,2.347,1.849,5.869-.237,7.59-2.007,1.657-3.569.5-4.116-1.773-1.148-4.781-1.8-15.786-1.9-20.948-.017-.833.578-1.761.392-2.682M109.663,49.555l.006-2.694-.485-.721c.164,1.247-1.154,2.869.478,3.415m-3.9-.486c-1.76-1.568-2.038,3.187-.24.977.256-.314.368-.863.24-.977M108.2,62.246c.422-3.063,1.188-6.14.977-9.27l-1.451,7.088Zm-6.831-.487-.24-1.948a1.7,1.7,0,0,0-.732,1.948Zm-.979,3.909.488-2.927-1.453,2.69ZM81.35,68.107l.488-3.9c-1.172.224-1.531,3.455-.488,3.9m30.757,19.047c-1.391-.339-1.035,1.063-1.189,1.951-.827,4.818-1.148,10.237-1.732,15.134l1.793-6.743ZM49.628,92.525l-.477,2.2.717.715.732-.73-.493-2.187Zm-4.4,9.759.488-3.9-1.5.811ZM57.8,166.641c.116-.314-.517-1.228-.346-2.026C60.4,150.851,61.4,135.751,62.8,121.567c.582-5.928.941-11.9,1.465-17.815-1.063.973-1.925,4.372-2.157,5.811-.117.719.266,1.423.167,2.158-2.354,17.383-5.36,34.789-6.119,52.413-.022.532.066,4.82.787,4.067-.482-1.245.826-1.478.857-1.561m39.664-61.91c-1.279-.112-.809-.063-.958.733a24.586,24.586,0,0,0-.5,7.565c1.727-1.735.923-5.865,1.457-8.3M22.769,155.016c.326-5.579.739-11.177,1.611-16.7,1.035-6.559,3.5-12.635,4.011-19.165.069-.9-.486-2.159-.252-3.191-.716-.114-.646.848-.821,1.363-2.729,7.99-3.271,16-4.061,24.263-.39,4.071-1.064,7.491-.98,11.724.012.581-.341,1.827.493,1.707m68.349,26.125c.37-1.452,0-5.918,0-7.812,0-.886.431-6.459.545-6.78a1.486,1.486,0,0,1,1.4-.795l-1.469-.486,2.942-35.39c.207-2.135,1.816-9.8,1.4-11.147a1.151,1.151,0,0,0-1.4-.818c-.462,5.8-1.856,11.559-2.439,17.337-1.227,12.186-.854,24.516-2.2,36.59l.251,10.032c.307.016.929-.567.972-.732M11.544,128.167c-1.236-1.387-2.336,4.655-1.217,5.366Zm75.666,5.859c-.264-1.505,1.276-3.982-.482-4.882a12.706,12.706,0,0,1-.386,4.264c-.175.945.043.587.867.618m22.456,4.389,0-.722-1.455-1.228a1.679,1.679,0,0,0,.735,1.948Zm-39.048.976h.721l.737-.735-1.218-1.692-.734.733Zm-.491,12.7v-6.836l-.771,4.244c.6.962-.961,3.023.771,2.592m-24.9,21.969c.606-6.169.782-12.448,1.126-18.656.123-2.225,1.321-4.194.339-6.729-.679.278-.808,2.506-.9,3.239a127.579,127.579,0,0,0-1.048,20.445c.023.592-.368,1.815.483,1.7m62.486-25.384h-.478V151.6h.478ZM75,157.458a5.334,5.334,0,0,0,0-2.923h-.477v2.924Zm-5.857,7.326c-.031-1.377.061-2.775,0-4.156-.025-.592.369-1.814-.484-1.7.568,1.758-1.235,4.807.479,5.857m5.86-5.368-.976.72-1.946,31.5,2.815-7.59-.423-12.667Zm-5.858,6.835c-2.253-.121-.66,2.424-.627,3.056.04.755-.62,1.863-.342,2.8,1.652-1.162.762-4.126.969-5.855m13.673,3.9c1.79-.007,1.79-1.452,0-1.459ZM57.429,214.585l.737-36.622c-2.75,10.531-2.405,21.62-1.649,32.414Zm-6.835-35.15h-.478v3.413h.478Zm39.547,15.622c1.087-.264.67-.7.663-1.342-.044-3.846.244-7.522.309-11.352-.313-.036-.972.649-.972.732ZM50.105,193.1c.291-1.056.9-1.991-.476-2.436a3.535,3.535,0,0,0,0,2.436Zm-.488,14.649c.078-.969.907-2.995-.477-3.413Zm-12.2,27.345c-.485-6.186-2-12.251-2.855-18.375-.23-1.649-.128-3.475-.33-5.057-.074-.568.045-2.057-.711-1.955.633,7.648,1.032,15.542,2.555,23.072.161.795.43,2.059,1.341,2.315m12.2-20.992H49.14v2.924h.478ZM75.5,227.769c1.1-.272.653-.715.654-1.342.01-4.1-.284-8.215-.176-12.328-.964.183-.731.8-.822,1.429-.494,3.347,1.01,8.576.344,12.242M14.96,244.856,9.6,215.566a177.741,177.741,0,0,0,2.579,24.511c.325,1.755.417,5.235,2.784,4.779m34.174-25.874v7.324l.892-5.631Zm-29.3,5.856-.966-4.389c.058,1.19-.213,3.649.966,4.389M9.1,242.415C8.28,237.7,7.825,232.887,7,228.164c-.105-.606-.092-2.365-.82-2.345A113.3,113.3,0,0,0,7.6,242.134Zm17.966,4.979c-.372-.257-1.365-.013-2.131-.542-1.24-.858-2.625-9.116-3.017-11.15-.33-1.724-.069-4.347-.331-5.748-.112-.6-.967-.9-1.16-1.548-.255-.847.352-2.525-.578-2.588.247,7.631,3.055,15,2.892,22.649l5.4,1.758c-.479-.6-.708-2.577-1.076-2.831M49.14,234.605c1.348-1.086,1.388-5.1.236-6.345Zm.966,5.368-.478-4.878c.078,1-.248,2-.2,2.989.026.508-.065,2.018.675,1.889m7.813,15.136-.545-7.505-.91-3.718a34.627,34.627,0,0,0,.455,10.007c.2.85-.457,1.456,1,1.217m-12.2,2.442c.341-.336.083-8.6-1.457-9.275-.018,1.729-1.3,8.134-.032,9.061Zm-6.835-6.836-1.453,0c.11,1.4-.78,2.337-1.471,3.412l3.9,1.469Zm63.461,23.44c.761-.786-.165-7.812-.519-9a2.175,2.175,0,0,0-1.424-1.744,87.185,87.185,0,0,0,.531,9c.1.868.263,2.1,1.413,1.746" transform="translate(0 2.191)"/>
    <path id="Path_5" data-name="Path 5" d="M296.775,74.935a96.977,96.977,0,0,1,6.979,7.9l11.081-4.926,13.743-5.25a414.81,414.81,0,0,1,43.454,1.461c3.784.369,8.833-.447,11.933,2.224,2.74,2.361,1.719,11.046,1.966,14.649,2.205,32.349,2.584,66.784,3.232,99.667.07,3.569.5,11.016.19,14.06-.067.65-.813,1.188-.817,1.484-.005.407,1,1.036,1.1,1.925.379,3.695-.39,12.037-1.875,15.51-.853,2-4.842,2.437-7,2.764-13.477,2.042-29.206,1.473-42.931,1.506-6.355.016-5.888.3-12.154-1.468-7.037-1.991-14.421-3.774-21.361-5.979-3.891-1.236-7.615-3.24-11.607-4.255l-.485,11.862a27.343,27.343,0,0,1-4.271,1.695c-4.942.941-11.867.015-16.97.226-9.2.379-18.321.865-27.334.822-10.665-.051-15.345,1.244-24.986-4.269a350.994,350.994,0,0,1-40.417-26.956c-3.5-2.7-7.117-5.439-10.7-8.362-2.361-1.927-7.816-6.406-9.31-8.736-1.286-2-.156-2.176-.271-3.635-.886-11.179-.441-22.649,0-33.7.186-4.7.254-23.069,2.652-26.162.182-.237,1.668-1.468,2.134-1.878,5.332-4.686,11.734-8.931,17.368-13.3,15.39-11.924,30.811-24.062,47.038-34.958l19.336-.423c9.836,1.456,19.821.729,29.878,1.267,4.3.23,14.911.751,18.247,2.744,1.16.694,1.416,1.767,2.163,2.476m-2.4,2.4c-1.758-1.686-2.617-1.913-5.078-2.485-10.4-2.416-25.053-.835-35.9-1.173l-25.624-1.5c.648,5.868-.472,11.871-.877,17.82-2.057,30.188-2.239,60.731-1.778,91.3.178,11.761,1.245,23.988,1.237,35.642,0,2.866-1.377,5.942.074,8.907a2.452,2.452,0,0,0,1.565.532c12.984.05,26.492-.494,39.535-1.4l.55,1.022c2.814-1.839,18.385-.216,19.2-1.548l.033-18.759c.673-6.024.381-12.409.975-18.559.063-.648,0-1.276.738-1.588,4.549.3,18.239,14.519,21.01,14.519,2.426,0,6.9-5.935,8.712-7.612,1.323-1.226,3.149-2.346,4.493-3.56,1.327-1.2,2.734-4.184,4.842-3.941,2.04.72,2.955,2.572,3.187,4.648,1.123,10.032.009,20.468.695,30.27.056.8.194,3.423.571,3.718,1.806.48,3.5-.493,5.308-.56,11.831-.436,23.858-.012,35.651-.962a61.018,61.018,0,0,0,10.451-1.509l-.876-33.373,1.417-1c-2.2-.841-.962-1.324-1.1-2.432-1.337-10.865-.659-24.056-.84-35.184-.289-17.785-.658-35.435-.812-53.282-.031-3.564,1.062-11.74-.149-14.6a4.928,4.928,0,0,0-1.833-2.072c-17.184-1.3-34.388-1.341-51.554-1.452-6.015,4.62-10.7,11.468-15.62,17.328-2.487,1.58-4.267,1-6.2-1.076-4.157-4.467-7.9-12.148-12-16.081m21.755,4.612h-1.459c.007,1.79,1.452,1.79,1.459,0m-119.6,18.065h-1.459l0,1.463,1.459-.494Zm24.894,4.883h-.478v2.924h.478Zm-25.381.977c-1.395-.233-.813.293-1.041,1.127a10.577,10.577,0,0,0-.42,3.75c.62.82.887-.055.971-.725.165-1.344-.1-2.762.49-4.152m25.383,4.393c-.776-.1-1.241.1-1.246.992-.022,3.9.292,7.774-.21,11.7l.967-4.641ZM198,113.676c1.79-.009,1.79-1.452,0-1.461Zm-23.44,14.161a35.67,35.67,0,0,1,1.774-12.459l-1.043-1.7c-1.119-.272-.788,1.307-.863,2.042-.349,3.43-.586,7.1-.737,10.555-.035.787-.037,1.332.869,1.557m9.276,36.617,2.929-49.311c-1.673,1.07-.965,4.172-1.2,5.87-1.724,12.187-3.511,28.5-2.718,40.78.046.7.053,2.564.994,2.661m-13.181-46.868h-.478v2.924h.478Zm-3.905,9.274.489-6.832c-1.271.87-1.138,4.023-1.143,5.491,0,.633-.439,1.072.654,1.341m39.062-.978c1.79-.009,1.79-1.452,0-1.461Zm10.243,5.858.49-3.9c-1.174.223-1.531,3.453-.49,3.9m-.966,7.815c1.526-1.294.608-4.953.967-6.833l-.924,3.261Zm-22.463,17.087c-.6-6.409,1.516-12.741.247-19.045-.561,1.464.122,3.057-1.712,3.672-.2,1.155.929.3,1.038,1.437.209,2.2-.531,6.5-.558,8.83-.018,1.507.093,2.8.034,4.372-.037.982-.019.769.951.733m22.456-15.62c-.28-.28-1.452.407-1.452.731,0,1.351,2.19.007,1.452-.731M166.751,155.18v-9.033c0-.9.874-3.25.484-4.147h-.478c.186.606-.493,1.414-.493,1.707V155.18Zm41.008-10.256c.28.28,1.453-.406,1.453-.73,0-1.351-2.19-.007-1.453.73m-23.925,20.513h-.972a2.413,2.413,0,0,0,.733,2.436Zm6.837,17.819c.125-3.979-.092-7.987,0-11.962-.86-.11-.463,1.1-.488,1.7-.082,1.956.084,3.93.019,5.885-.067,2.057-1.454,4.73.227,6.569a10.185,10.185,0,0,0,.242-2.195m-26.849-10.01v9.033c0,1.6,2.091,3.266,1.962,1.464-.221-3.07-.622-6.684-.985-9.773-.085-.733-.394-1.5-.977-.723m42.954,20.993c.053-1.159.348-11.721-.239-11.721-.206,2.686-.808,5.36-.752,8.08.016.78.211,3.232.991,3.64m-25.38-6.833v8.544c0,.115,1.545,1.865,1.96.969Zm-3.908,3.909h-.972a1.7,1.7,0,0,0,.732,1.947Zm15.037,3.06c-2.709-1.294-1.243,4.04-.878,5.482.172.678-.005,1.521.972,1.709-.051-1.534-.948-5.084.924-5.416l.062-.683c-.608-.129-1.01-1.059-1.079-1.092m27.92,14.024a10.1,10.1,0,0,0-.14-2.54c-.066-.531-.135-2.384-.827-2.338a10.1,10.1,0,0,0,.138,2.54c.066.532.136,2.385.828,2.338m-3.9-.977-.492-1.946h-.476l0,1.947Zm1.953,13.183c-.452-3.5-.86-7.422-1.593-10.857-.1-.472-.174-1.465-.841-1.344-.423,1.317.44,3.685.287,4.661-.077.491-.928.871-1.14,1.563-.336,1.093-.908,3.587.013,4.385Zm84.462-5.856c.969-.261,1.1-1.043.966-1.954-.97.261-1.1,1.043-.966,1.954m21.471,6.833-.968-5.854c.313,1.934-.558,3.56-.984,5.363Z" transform="translate(10.284 4.471)"/>
    <path id="Path_6" data-name="Path 6" d="M184.7,7.172c-.2-.137-.069-.788-.119-.823-.274-.185-.691.713-1.18.751-2.707.215-6.465-.805-9.278-1.009-10.373-.751-20.776-1.376-31.244-1.716-5.124-.166-10.384.506-15.4-.473,1.665,2.2,4.006,2.886,5.858,5.122,5.215,6.289,9.027,16.359,11.225,24.166-.252.219-6.251-.179-6.1-1.461l-1.477.967-24.645,0,3.176-12.2-4.648,12.927c-3.033,2.167-6.079,4.351-9.032,6.632-3.231,2.5-7.049,5.8-10.967,8.046L77.924,59.066l1.71-9.758-18.058.976L71.753,64.317c.483,1.922-6.65,6.3-7.985,7.933L63.043,70.3c.865,3.592-3.55,4.951-5.628,7.312-1.1.388-.312-1.831-.234-2.192.189-.854.665-1.539.725-2.221.033-.368-.076-3.3-.721-3.387L55.464,79.57,11.787,118.148c-1.13-.83.27-13.778.544-15.805C15.2,81.2,21.738,61.227,41.412,50.379c10.2-5.623,27.207-3.333,38.631-5.063.879-.535,4.155-13.576,4.944-15.8C88.764,18.861,97.958,4.687,109.719,2.494c23.746-4.43,48.38-1.988,72.192-.066,9.8.792,29.419.852,37.6,5.359,6.689,3.684,9.407,16.1,9.423,23.129-4.675,4.507-4.57-6.547-5.428-9.547-.92-3.218-3.376-7.993-6.044-10.068-2.1-1.635-6.074-2.115-8.769-2.46-5.721-.732-11.448-.594-17.048-1.018-1.063-.081-6.665-.45-6.949-.65M97.692,25.865l4.882-14.644a3.74,3.74,0,0,0-1.82,1.837c-1.162,2.519-2.676,8.313-3.434,11.217-.126.479-.493,1.712.371,1.591M93.3,40.513,97.2,26.357c-.846.134-.847.974-1.106,1.576a71.109,71.109,0,0,0-3.166,10.5c-.1.494-.549,2.165.365,2.076M134.31,26.848c-.387.28-.574,2.239.727,1.948a1.074,1.074,0,1,0-.727-1.948M55.225,54.681c-1.567-.39-1.861.621-1.946,1.948a15.351,15.351,0,0,0,1.946-1.948M42.044,56.631c-2.094.045-2.242,2.8-2.433,4.392,1.05-.049,2.652-4.164,2.433-4.392M64.982,62l-1.091.6c-.867,2-.156,2.994.618,4.767C66.545,65.911,66,63.823,64.982,62M49.365,75.668l.487-3.9c-.98.158-1.549,3.62-.487,3.9" transform="translate(0.741 0)"/>
    <path id="Path_7" data-name="Path 7" d="M108.937,282.376l.894-4.219-.384-7.965,13.161-.512.972,27.836,12.961-.551L137.732,298c-.363-1.217,2.636-1.372,3.677-1.453,23.642-1.835,47.11-2.591,70.782-4.885,5.327-.516,11.323.85,15.262-3.778,1.3-5.283,1.854-11.322,3.557-16.46.737-2.221,2.185-6.015,4.795-3.41l-2.523,15.448c-.914,3.1-1.651,9.813-5.2,10.907-20.41,1.8-40.773,4.35-61.313,4.592-14.421.293-31.139,3.665-45.246,1.352-22.879-3.752-45.972-13.775-68.25-20.115-2.962-1.791-3.9-4.405-5.391-7.343l-6.8-21.229c.767-.568,4.307,1.244,5.108,1.966l3.684,12.186c.923.084.447-1.555.356-2.067-.5-2.8-2.146-6.319-3.059-9.155-.236-.733-.443-.471.508-.508l36.862,11.48.48,4.645c1.2-.487-.28-3.486,1.254-3.856.751-.182,11.169,2.879,13.277,3.234a18.2,18.2,0,0,0,3.528.133c.447.461-.527,5.53.733,6.348l.73-6.348,4.393.491Zm-10.745,0c-.284-1.129.645-3.75-.478-4.389.288,1.126-.649,3.709.478,4.389" transform="translate(2.683 16.428)"/>
    <path id="Path_8" data-name="Path 8" d="M137.164,78.352a12.7,12.7,0,0,1-1.42.116c-.665-.012-1.328-.091-1.991-.161-.238-.025-.464-.131-.7-.161a5.277,5.277,0,0,1-3.561-2.154,12.133,12.133,0,0,1-.968-1.191,14.607,14.607,0,0,1-.854-1.8,17.117,17.117,0,0,1-.641-1.706,5.577,5.577,0,0,1,.767-5.4,2.2,2.2,0,0,0,.233-.361,2.863,2.863,0,0,1,2.446-1.62.937.937,0,0,0,.74-.433,5.269,5.269,0,0,1,3.211-1.971,24.348,24.348,0,0,1,3.7-.5,7.95,7.95,0,0,1,1.9.238,1.251,1.251,0,0,1,.7.289c.574.672,1.4.5,2.113.682a2.446,2.446,0,0,1,1.86,1.55,6.262,6.262,0,0,1,.345,2.065,8.647,8.647,0,0,0,.666,2.709,2.8,2.8,0,0,1,.215,1.149c-.222,1.548-.4,3.129-1.669,4.278a1.048,1.048,0,0,0-.183.385,5.309,5.309,0,0,1-1.9,2.489,7.334,7.334,0,0,1-5.007,1.513" transform="translate(8.274 3.984)" fill="#c63636"/>
    <path id="Path_9" data-name="Path 9" d="M100.386,396.6a17.309,17.309,0,0,1,.728-2c1.01-2.117,3-2.549,4.545-.919a5.971,5.971,0,0,1,1.769,6.14c-1.159,4.882-1.57,9.964-2.395,14.943-.932,5.637-1.951,11.256-2.982,16.874-.343,1.87-1.148,2.494-2.717,2.54a2.45,2.45,0,0,1-2.544-2.363,18.031,18.031,0,0,1-.152-4.571c.311-3.482.784-6.946,1.24-10.835-1.1.771-1.822,1.364-2.614,1.822a23.272,23.272,0,0,1-4.6,2.431c-3.044.923-4.108.3-5.773-2.6-2.439,3.566-4.792,7.237-7.381,10.707A32.457,32.457,0,0,1,72,434.82a75.41,75.41,0,0,1-9.374,6.195c-2.419,1.395-5.042.42-7.541-.1-5.092-1.065-7.712-5.177-9.5-9.774-3.322-8.529-4.032-17.612-4.492-26.766a41.78,41.78,0,0,1,.539-10.77,53.611,53.611,0,0,1,3.522-11.889,10.564,10.564,0,0,1,11.351-6.177,7.048,7.048,0,0,1,4.9,2.623,21.718,21.718,0,0,1,1.357,1.8,31.477,31.477,0,0,1,4.475,15.481c.012,1.506-.152,3.138-2.085,3.892a9.974,9.974,0,0,1-1.124-1.757,60.455,60.455,0,0,1-2.841-8.01,13.8,13.8,0,0,0-3.222-5.871c-2.371-2.851-4.927-2.613-6.626.718a29.542,29.542,0,0,0-2.932,10.926c-.73,8.364.2,16.635,1.716,24.82a26.015,26.015,0,0,0,4.113,10.536c2.012,2.831,4.16,3.265,7.063,1.741,6.649-3.493,11.514-9.047,16.082-15.06a33.005,33.005,0,0,1,5.058-5.26,5.729,5.729,0,0,0,2.16-3.718c.989-5.586,3.8-9.794,8.983-11.515,1.923-.639,4.156-.209,6.8-.281m-1.9,4.289c-6.249.488-9.953,6.424-8.487,13.035a6.381,6.381,0,0,0,4.081-3.522c1.087-2.32,2.526-4.448,3.709-6.72a13.491,13.491,0,0,0,.7-2.793" transform="translate(2.677 24.522)"/>
    <path id="Path_10" data-name="Path 10" d="M112.351,404.776c1.358-2.115,2.7-4.243,4.08-6.348,1.848-2.825,4.473-3.313,7.342-2.5,2.5.711,3.85,2.8,4.493,5.353a37.933,37.933,0,0,1,.7,8.779,31.809,31.809,0,0,1-2.074,11.528c-2.659,7.3-6.987,13.227-13.963,16.226-1.464.628-3.607.219-5.173-.436-1.506-.63-1.659-2.632-1.651-4.329.028-7.238-.012-14.478.134-21.713.149-7.355.43-14.709.785-22.056a17.939,17.939,0,0,1,1.136-5.064,2.279,2.279,0,0,1,1.848-1.266c.575.081,1.283,1.035,1.486,1.752a15.018,15.018,0,0,1,.488,3.895c.059,5.254.035,10.508.061,15.762,0,.146.214.291.311.415m9.357-4.04c-2.15.181-2.767,1.927-3.5,3.455a50.586,50.586,0,0,0-4.994,16.458q-.54,4.895-1.026,9.794a15.919,15.919,0,0,0,.125,2.106c.89-.817,1.413-1.31,1.947-1.788,6.341-5.666,9.471-12.971,9.589-21.772.04-2.967-.239-5.883-2.138-8.254" transform="translate(6.93 25.013)"/>
    <path id="Path_11" data-name="Path 11" d="M193.237,411.03c-.741.908-1.462,1.837-2.232,2.717a15.5,15.5,0,0,1-2.2,2.3c-4.292,3.209-9.152.877-10.122-4.7a25.964,25.964,0,0,1,1.887-14.458,62.018,62.018,0,0,1,3.875-7.466,10.331,10.331,0,0,1,7.506-5.236c1.609-.256,3.352.472,5.453.826.132-.156.557-.73,1.048-1.227,2.165-2.191,5.03-1.455,5.754,1.612a12.585,12.585,0,0,1,.272,4.862c-1.079,6.26-1.437,12.657-3.423,18.757-.822,2.525-.8,5.361-1.185,8.052-.386,2.713-.754,5.431-1.211,8.13-.232,1.366-1.941,3-2.987,2.938-1.583-.094-2.18-1.2-2.661-2.719A7.922,7.922,0,0,1,193,420.6c.876-3.055.772-6.215.951-9.34l-.716-.226m2.957-21.337c-2.953-.31-5.418.425-6.594,2.191a31.2,31.2,0,0,0-5.564,15.629c-.075,1.29-.011,2.626,1.449,3.5,5.892-5.715,7.169-13.95,10.71-21.32" transform="translate(11.649 24.985)"/>
    <path id="Path_12" data-name="Path 12" d="M225.439,385.493c-2.692-2.469-5.264-3.814-8.462-3.509s-4.548,1.277-5.2,4.507a17.286,17.286,0,0,0,.839,10.033c.965,2.4,2.2,4.675,3.185,7.067,1.808,4.4,4.355,8.439,5.487,13.189,1.055,4.421,2.018,8.778-.026,13.159-1.393,2.989-3.177,5.382-6.707,5.395a8.7,8.7,0,0,0-2.665.724c-4.8,1.67-9.781.823-14.671,1.218a3.564,3.564,0,0,1-1.227-.123c-1.858-.518-2.294-2.285-.867-3.724,1.817-1.832,4.156-2.169,6.512-2.594q5.745-1.039,11.414-2.534c.674-.177,1.387-1.263,1.628-2.083.928-3.154-.221-6.125-1.3-8.924-1.716-4.449-3.965-8.662-5.656-13.121-1.97-5.2-3.819-10.518-2.8-16.328,1.282-7.315,4.472-10.643,10.827-11.592,4.961-.742,8.193,2.844,10.019,7.476.126.317-.137.812-.327,1.764" transform="translate(12.69 24.57)"/>
    <path id="Path_13" data-name="Path 13" d="M130.632,406.437c1.106-.753,1.591-2.078,1.988-3.816.8-3.483,1.767-7,4.094-9.85.794-.972,1.523-1.309,2.593-.846a6.279,6.279,0,0,1,6.793-5.084c3.771.451,6.444,2.736,8.224,6.187,1.186,2.3-.167,7.5-2.316,9.714a26.486,26.486,0,0,1-13.419,7.362c-.493.114-.979.268-1.6.44-.388,3.618-1.206,7.15-.576,10.791.6,3.5,2.236,4.146,4.811,1.827,3.353-3.018,6.615-6.152,9.955-9.185a16.836,16.836,0,0,1,3.731-2.856,3.227,3.227,0,0,1,2.811.4c1.008.714.7,2.065.054,2.964-2.188,3.026-4.369,6.072-6.763,8.906a66.8,66.8,0,0,1-5.286,5.041,8.849,8.849,0,0,1-7.1,2.431c-4.48-.39-7.106-3.607-7.391-8.955-.158-2.935,0-5.887-.092-8.828-.063-2.028-.3-4.049-.509-6.639m7.545-1.6a28.1,28.1,0,0,0,9.383-6.422,2.9,2.9,0,0,0,.411-3.843c-.752-1.24-2-1.5-3.54-.517-3.548,2.28-5.257,5.839-6.254,10.781" transform="translate(8.533 25.265)"/>
    <path id="Path_14" data-name="Path 14" d="M170.97,388.975c-2.42.222-4.522.3-6.588.638A5.427,5.427,0,0,1,160,388.6c-1.933-1.462-1.829-3.174.3-4.2a11.281,11.281,0,0,1,3.21-1.141,48.431,48.431,0,0,1,9.07-.887c3.887.2,5.852,3.216,5.05,7.27a47.212,47.212,0,0,1-1.953,5.825c-.279.824-.571,1.647-.777,2.493-1.14,4.681-2.089,9.425-3.432,14.037-1,3.443-2.5,6.721-3.779,10.072-.46,1.2-.926,2.407-1.691,4.391,1.566-.713,2.566-1.09,3.5-1.608,3.094-1.716,6.158-3.492,9.244-5.221.543-.3,1.177-.768,1.7-.682a3.925,3.925,0,0,1,2.353,1.113c.332.412.1,1.608-.2,2.283a6.069,6.069,0,0,1-1.695,2.25,75.933,75.933,0,0,1-7.42,5.328c-3.665,2.173-7.48,4.059-11.26,6-1.435.736-2.982,1.163-4.251-.368a4.69,4.69,0,0,1-.744-4.9c2.8-7.78,5.665-15.54,8.3-23.388,1.171-3.5,1.771-7.21,2.775-10.777.531-1.88,1.383-3.654,2.071-5.484.184-.488.3-1,.6-2.034" transform="translate(10.246 24.974)"/>
    <path id="Path_15" data-name="Path 15" d="M78.242,322.7c-1.048,6.25-3.7,12.132-3.7,18.641,0,4.825-.376,9.65-.531,14.477-.035,1.086.211,2.178.226,3.267a24.776,24.776,0,0,1-.142,4.259,2.625,2.625,0,0,1-2.3,2.464,3.016,3.016,0,0,1-3.148-1.381,50.291,50.291,0,0,1-3.051-5.457c-1.876-4.186-3.636-8.426-5.35-12.682a35.6,35.6,0,0,1-1.542-5.014c-.7-2.915-.872-3.292-3.427-5.444a6.075,6.075,0,0,0-.721,1.8c-.173,3.945-.487,7.9-.32,11.837.265,6.246.915,12.475,1.3,18.718a10.982,10.982,0,0,1-.531,3.889c-.522,1.652-2.176,1.877-2.863.313a53.579,53.579,0,0,1-2.868-8.4,63.732,63.732,0,0,1-2.036-10.667c-.371-4.879-1.285-9.756-.189-14.725.585-2.653.587-5.37,1.921-7.909,2.483-4.724,7.333-6,11.574-2.7,2.79,2.169,4.218,5.282,5.283,8.54.6,1.845.973,3.767,1.638,6.413.821-5.022,1.534-9.259,2.2-13.5.78-4.94,2.861-9.447,4.695-14.028a6.445,6.445,0,0,1,1.921-2.241c2.412-2.046,4.112-1.767,6.052.838a23.9,23.9,0,0,1,4.124,8.57,50.856,50.856,0,0,0,2.589,7.476c1.665,3.915,1.825,8.106,2.537,12.2,1.408,8.09,2.711,16.2,4.23,24.27,1.189,6.316,2.653,12.58,3.954,18.875a9.37,9.37,0,0,1,.212,2.913,3.078,3.078,0,0,1-2.972,2.653,2.825,2.825,0,0,1-3.174-1.843,46.571,46.571,0,0,1-2.086-6.587c-1.158-5.348-2.135-10.735-3.177-16.109a8.784,8.784,0,0,0-.327-1.946c-1.908-4.162-1.736-8.73-2.583-13.094-1.7-8.75-2.629-17.659-5.463-26.171-.3-.9-.766-1.746-1.155-2.616l-.811.1" transform="translate(3.04 20.367)"/>
    <path id="Path_16" data-name="Path 16" d="M149.585,369.154a19.373,19.373,0,0,1-.6-10.078c-3.116-3.927-7.129-5.526-11.406-6.768-4.213-1.224-6.523.311-6.945,4.771-.381,4.044-.868,8.078-1.328,12.115a3.661,3.661,0,0,1-.329.874c-3.031.672-4.038.147-4.175-2.711a85.01,85.01,0,0,1,.148-10.209,7.127,7.127,0,0,0-.961-4.358,30.989,30.989,0,0,1-2.384-5.058c-1.139-3.2-.195-4.626,3.223-5.255.32-.06.635-.145,1.108-.255.857-4.113,1.6-8.291,2.624-12.4a57.622,57.622,0,0,1,2.925-9.046,9.643,9.643,0,0,1,7.4-5.948c4.4-.772,7.468,1.043,8.9,5.395,1.682,5.1,1.08,10.191-.673,15.132-1.308,3.685-2.182,7.614-5.727,10.474,3.4,1.547,6.158,2.8,9.27,4.213.841-4.027,1.581-7.552,2.312-11.08q1.969-9.5,3.934-18.99c.248-1.19.872-2.054,2.234-1.976,1.467.085,1.826,1.251,1.789,2.349-.116,3.4-.3,6.812-.64,10.2a64.4,64.4,0,0,1-1.209,7.482c-1.683,7.606-2.108,15.391-3.38,23.05a31.182,31.182,0,0,1-1.8,6.33c-.9,2.281-1.731,2.482-4.31,1.746m-8.325-48.484c-1.048.631-1.964.89-2.381,1.494a14.974,14.974,0,0,0-2.311,4.3c-1.246,4.525-2.28,9.113-3.3,13.7a13.885,13.885,0,0,0-.033,3.055,1.893,1.893,0,0,0,2.8-.352c3.152-3.146,4.69-7.061,5.88-11.231,1-3.523.746-6.9-.664-10.97" transform="translate(7.913 20.553)"/>
    <path id="Path_17" data-name="Path 17" d="M199.877,321.234c-2.247,1.714-2.787,3.842-3.539,5.7a88.571,88.571,0,0,0-5.589,22.242c-.411,3.265-.484,6.573-.838,9.847-.4,3.715-.913,7.419-1.462,11.116a16.567,16.567,0,0,1-.955,2.8c-1.874-.643-1.9-2.091-1.959-3.3-.168-3.185-.329-6.388-.183-9.569.195-4.275.522-8.559,1.094-12.8a67.012,67.012,0,0,1,2.144-10.319c1.733-5.772,3.106-11.709,6.334-16.928a11.428,11.428,0,0,1,1.792-2.346,4.413,4.413,0,0,1,7.209,1.192,41.036,41.036,0,0,1,4.527,15.005c.476,4.125.818,8.265,1.229,12.4a3.408,3.408,0,0,0,.778,2.02c.566-1.945,1.255-3.864,1.675-5.839a51.946,51.946,0,0,1,6.13-14.877c.715-1.255,1.6-2.78,3.226-2.191s1.383,2.345,1.1,3.753a48.109,48.109,0,0,1-1.27,4.785c-.714,2.306-1.683,4.548-2.232,6.889a232.272,232.272,0,0,0-4.6,25.262c-.288,2.394-.5,4.807-.988,7.161-.315,1.519-1.056,3-3.017,2.973-1.531-.017-2.85-1.226-3.24-3.245q-.94-4.861-1.571-9.78-.981-7.5-1.766-15.026c-.5-4.7-.7-9.43-1.381-14.1-.611-4.188-1.7-8.307-2.65-12.832" transform="translate(12.103 20.661)"/>
    <path id="Path_18" data-name="Path 18" d="M113.2,348.421c-2.479,1.627-4.445,3.035-6.523,4.249a6.579,6.579,0,0,1-7.711-.486c-3.2-2.574-3.876-4.825-3.023-8.333,2-8.223,7.116-13.641,14.776-16.815a12.482,12.482,0,0,1,3.8-.73c1.962-.148,3.942-.064,5.909-.175,1.293-.073,2.327.413,2.525,1.616a28.14,28.14,0,0,1,.384,5.837c-.116,2.514-.533,5.015-.836,7.521-.263,2.174-.547,4.345-.822,6.518-.674,5.314-1.306,10.632-2.04,15.937-.554,4.009-1.232,8-1.879,12a2.936,2.936,0,0,1-.516,1.542,4.543,4.543,0,0,1-2.254,1.539c-.591.061-1.617-.805-1.874-1.478a11.526,11.526,0,0,1-.95-4.454c.323-6.909-.249-13.861,1.006-20.727a21.819,21.819,0,0,0,.027-3.558M103.47,346.9a12.316,12.316,0,0,0,3.046-1.551,33.551,33.551,0,0,0,9.1-13.781c-7.4.286-14.469,8.956-12.148,15.332" transform="translate(6.244 21.302)"/>
    <path id="Path_19" data-name="Path 19" d="M173.912,354.744a27.018,27.018,0,0,0-2.486,1.1,8.052,8.052,0,0,1-11.687-3.865c-1.4-3.73-2.087-7.6.453-11.318a20.844,20.844,0,0,0,1.514-3.559c1.638-3.791,4.989-6.1,8.042-8.45,2.054-1.579,4.953-2.244,7.582-2.841,3.171-.719,5.6,1.469,8.1,2.955,1.17.695,1.217,2.094.855,3.3-2.162,7.229-2.343,14.9-5.179,22.015-1.071,2.684-.964,5.832-1.442,8.76a41.407,41.407,0,0,1-.928,4.523c-.618,2.2-1.792,3.19-3.314,3a4.039,4.039,0,0,1-3.163-4.052c.2-2.809.658-5.6,1.039-8.4.129-.94.359-1.865.616-3.175m5.737-23.579a9.511,9.511,0,0,0-1.85.014c-5.666,1.555-11.619,8.447-12.629,14.876a8.277,8.277,0,0,0,.482,3.561c.455,1.47,1.588,1.746,2.824.754a9.693,9.693,0,0,0,1.742-1.966,87.327,87.327,0,0,1,5.127-7.221c2.5-2.84,2.977-6.357,4.3-10.019" transform="translate(10.352 21.272)"/>
    <path id="Path_20" data-name="Path 20" d="M160.211,307.073c2.806.03,4.979,1.879,4.975,4.232,0,1.961-2.149,3.621-4.72,3.652-2.267.028-4.554-1.888-4.6-3.849a4.288,4.288,0,0,1,4.343-4.035" transform="translate(10.181 20.057)"/>
  </g>
</svg>
