<svg xmlns="http://www.w3.org/2000/svg" xmlns:xlink="http://www.w3.org/1999/xlink" width="61.588" height="47.42" viewBox="0 0 61.588 47.42">
  <defs>
    <clipPath id="clip-path">
      <rect id="Rectangle_31" data-name="Rectangle 31" width="61.588" height="47.42" fill="#c63636"/>
    </clipPath>
  </defs>
  <g id="Group_16" data-name="Group 16" transform="translate(0 0)">
    <g id="Group_15" data-name="Group 15" transform="translate(0 0)" clip-path="url(#clip-path)">
      <path id="Path_40" data-name="Path 40" d="M39.252,23.969c-1.56,1.3-3.13,2.586-4.677,3.9a3.055,3.055,0,0,0-1.451,2.388,1.313,1.313,0,0,1-2.238.762,2.883,2.883,0,0,1-.69-.87c-1.283-2.578-3.642-4.037-5.731-5.623C16.626,29.036,11.7,36.158,6.729,43.243l.182.378c1.2.27,2.388.591,3.6.8a107.773,107.773,0,0,0,25.532,1.172q5.526-.36,11.034-.974a9.216,9.216,0,0,0,2.8-1.024,2.141,2.141,0,0,1,2.288.328.92.92,0,0,1-.479,1.53,19.553,19.553,0,0,1-3.759.751c-5.267.437-10.536.944-15.814,1.145a106.517,106.517,0,0,1-19.661-1.134,44.639,44.639,0,0,0-6.376-.368,7.319,7.319,0,0,1-4.062-1.614,2.209,2.209,0,0,1-.675-1.105A23.162,23.162,0,0,1,0,35.049c.117-6.266.35-12.531.5-18.8C.6,12.1,1.81,8.185,3.037,4.275c.6-1.926,2.215-2.6,3.977-2.816,2.888-.35,5.827-.348,8.692-.812C22.088-.388,28.488.117,34.882.17c4.135.034,8.268.194,12.4.292a29.181,29.181,0,0,1,9.552,2.18,4.849,4.849,0,0,1,1.969,1.65A1.586,1.586,0,0,1,58.7,5.818c-.276.317-.994.267-1.524.332a.731.731,0,0,1-.447-.219c-2.78-2.356-6.19-2.977-9.634-3.357a156.505,156.505,0,0,0-23.956-.889,25.389,25.389,0,0,0-5.4.87c-3.423.914-6.805,1.984-10.19,3.038-2.522.785-3.462,2.86-4.01,5.191a.84.84,0,0,0,.272.679A18.158,18.158,0,0,0,6.69,13.669c5.667,2.969,11.406,5.8,17.063,8.784,2.773,1.464,5.422,3.162,8.127,4.753q-.046.167-.092.336a13.023,13.023,0,0,0,1.168-.753c5.633-4.514,11.291-9,16.864-13.581a46.172,46.172,0,0,0,4.846-4.773c.9-.992,1.758-1.437,3.081-.8.057-.328.1-.592.156-.89l.812.222c1.935.534,2.4,1.2,2.633,3.2.483,4.065.116,8.117-.04,12.174-.173,4.5-.343,9.009-.586,13.51-.131,2.433-.405,4.861-.635,7.289a2.57,2.57,0,0,1-1.218,2.114A1.82,1.82,0,0,1,56.042,44.2a4.652,4.652,0,0,0-.988-1.3q-3.835-4.4-7.684-8.791c-2.229-2.55-4.488-5.074-6.667-7.666a16.515,16.515,0,0,1-1.458-2.481,13.074,13.074,0,0,1,2.233,1.672A149.009,149.009,0,0,0,54.81,39c.765.682,1.616,1.266,2.507,1.956a11.823,11.823,0,0,0,1.957-5.924c.331-5.615.58-11.236.8-16.857a32.248,32.248,0,0,0-.174-4.767c-.259-2.35-1.124-2.79-3.183-1.791a4.453,4.453,0,0,0-.453.229c-2.628,1.668-5.335,3.227-7.859,5.041-3.13,2.25-6.108,4.712-9.151,7.083M3.509,40.322c6.5-5.466,12.015-12.058,19.2-16.953L2.927,13.25a19.327,19.327,0,0,0-.374,2.065c-.436,6.185-.992,12.376-.381,18.576.22,2.236.342,4.536,1.337,6.432" transform="translate(0 0)" fill="#c63636"/>
    </g>
  </g>
</svg>
