<?xml version="1.0" encoding="UTF-8"?>
<svg id="Layer_1" data-name="Layer 1" xmlns="http://www.w3.org/2000/svg" viewBox="168 300 276 262" fill="currentColor">
  <path d="M175.63665645,441.40946895c5.03017652-3.42760042,7.23162918-9.4520127,9.03831435-17.35424985,3.62100326-15.83683791,8.03891711-31.83512609,18.61985209-44.79270609,3.60702387-4.41689711,6.92879972-5.9523297,11.78865076-3.84685627,3.28421162-14.89388002,16.44284191-24.8460576,30.88911918-23.11901773,17.14987279,2.04994042,29.30541803,12.44196886,37.40265403,28.14015813,5.39261132,10.45418128-.75848873,34.08255808-10.53445139,44.17301653-17.19721401,17.7503363-37.91105761,28.10926559-61.01820588,33.47757925-2.24510607.52149543-4.45436316,1.22099071-7.28248669,2.00470492-1.76654805,16.44843657-5.48695072,32.51733626-2.62417891,49.06764464,2.75007912,15.89899075,10.17167353,18.85437669,21.88159377,8.31119548,15.24593228-13.72621572,30.07762885-27.98054669,45.27296091-41.77259293,5.31439539-4.82364883,10.744914-9.98343788,16.96393842-12.98736923,3.43069497-1.65679613,9.46412807-.55128466,12.78761918,1.8020646,4.58077795,3.24445181,3.20033532,9.38802102.24305259,13.47797212-9.94971866,13.75894709-19.86358836,27.61572055-30.75275587,40.5008502-7.15795869,8.47043915-16.00201965,15.29621853-24.03682013,22.923365-9.26052651,8.79113309-20.45483907,12.08780801-32.2944331,11.0569535-20.37267804-1.77521751-32.31321522-16.40356884-33.61467005-40.72187894-.71440651-13.34741438-.00763291-26.77573779-.41646555-40.15073479-.28173174-9.22178976-1.3772694-18.41489359-2.31328772-30.19009855ZM209.94557868,434.14236763c18.12414145-8.25345586,31.34006148-17.07511372,42.67142346-29.20558285,5.1336068-5.49519372,5.65281653-11.23127567,1.87100749-17.47046463-3.4204034-5.6426688-9.11095568-6.83865127-16.09996109-2.34893604-16.13443785,10.36334252-23.90697481,26.54882476-28.44246986,49.02498352Z"/>
  <path d="M431.88299186,426.65099145c3.92705619-24.0004011,8.81428068-64.60916644-2.62457718-66.9122234-14.30794269-2.88079776-14.43678503,29.90430885-14.25611292,37.92913733.02518282,1.11214372.05622212,1.74874204.05622212,1.74874204l-9.87986546,61.5468181c-1.39764665-14.3591868-4.89073838-28.56551973-6.60258466-42.88312559-2.06909097-17.30938374-2.79587894-29.21090276-5.77975058-46.53609897-1.02898184-5.97418539.64304044-13.68657118-1.85328004-20.6048196-3.20114669-8.87225974-14.6616735-15.78172345-23.94974263-12.75392828-11.41426069.82781208-20.80628218,25.70609809-20.80628218,25.70609809l.03689576-.00175694c-7.57973674,15.8806978-13.73664401,37.75929969-17.85637807,56.42387067-.00029282-.00702776-.00263541-.05710059-.00263541-.05710059,0,0-3.97215101,17.39020303-7.48515474,38.26969108-.63981938,2.66527965-1.21609607,5.33026648-1.42605053,7.98236907-.03221059.40819598-.0237187.81639197-.05182976,1.22458795-2.00086309,13.13986968-3.58006032,26.80272216-3.76951713,37.91186074l-.03338188.01844788s-2.91886482,29.96960849,11.10123235,30.87004081c14.00984835.89955384,9.84267688-30.30899095,8.65088516-41.7762527-.17569411-4.40611546-.2614914-8.59232046.04392353-12.2810183,2.31272014-27.94092717,10.15658369-61.65164891,19.75592422-88.00664391,3.3806475-9.28250549,7.22044228-18.6437805,12.61864382-26.98046603,4.41460734-3.09748716,6.28721373,17.45257444,6.58296549,19.85109186,2.80085694,22.74594515.15636776,49.32524297,4.90128003,72.0559613,3.06791199,14.69944773,10.77649107,34.40910583,14.39754668,49.34837602,2.29632202,9.47576901-2.27875261,22.6580981,9.35951807,28.0621561,7.40257851,3.43745527,16.06341967-.8878409,17.48917738-8.81223092,2.79324353-15.52784546,3.32735362-36.87263008,5.33495166-53.53897338.02459718-.20526929-.01142012-.42225151.00087847-.62957056l2.88694705-29.77898038c1.13586242-5.47960647,2.30188567-11.50620728,3.1601514-17.3960595Z"/>
</svg>