<?xml version="1.0" encoding="UTF-8"?>
<svg id="Layer_1" data-name="Layer 1" xmlns="http://www.w3.org/2000/svg" viewBox="160 300 272 262" fill="currentColor">
  <path d="M167.69646807,412.65973322c5.69696084-3.88195231,8.19023111-10.70494167,10.23640477-19.65467443,4.10099202-17.93611915,9.10453058-36.05508991,21.0880409-50.73028581,4.08515957-5.00238705,7.84725954-6.74135173,13.35131709-4.35678339,3.71955634-16.86816574,18.62245313-28.13957256,34.9836833-26.18360174,19.42320579,2.32167405,33.19005173,14.09123698,42.36063178,31.87032866,6.10743886,11.83995455-.85903161,38.60043439-11.93086501,50.02845216-19.47682242,20.10326484-42.93642773,31.83534111-69.10658664,37.91526148-2.54271024.59062322-5.04481948,1.38284138-8.24783014,2.27044228-2.00071608,18.62878939-6.21428359,36.82773171-2.97203178,55.57189672,3.11462092,18.00651077,11.51999847,21.35365335,24.78214877,9.41290132,17.26688494-15.54571954,34.06462439-31.68955964,51.2742017-47.30983599,6.01885487-5.46305649,12.16922588-11.30681089,19.21262455-14.7089339,3.88545706-1.87641579,10.71866301-.62436121,14.48270561,2.04094059,5.18799142,3.6745261,3.62456167,10.63246745.27527087,15.26456956-11.26862196,15.58278969-22.49664293,31.27637329-34.82924411,45.86951505-8.1067951,9.59325383-18.12319686,17.32383697-27.22306512,25.9620139-10.48807267,9.95645795-23.16626797,13.69012968-36.57528121,12.52262835-23.07321593-2.01053474-36.59655302-18.57797414-38.0705246-46.11984267-.80910598-15.1167055-.00864471-30.32504507-.4716709-45.47298945-.31907721-10.4442011-1.55983588-20.85591375-2.61992984-34.19200271ZM206.55327273,404.42932789c20.52662043-9.34750792,35.4944011-19.3385369,48.32781265-33.07698272,5.81410152-6.22361925,6.40213604-12.72005812,2.11902233-19.78629427-3.87380127-6.39064317-10.31867521-7.74516129-18.23412111-2.66030359-18.273168,11.73707448-27.07600793,30.06805316-32.21271388,55.52358058Z"/>
  <path d="M422.82652987,341.11812768c-9.69762478-8.8968066-18.96356463-13.73909563-30.48385914-12.64192576-11.51635405,1.09687854-16.38174358,4.60077182-18.74384963,16.23671574-2.49608193,12.29727574-1.64344643,24.54531576,3.02451212,36.14629941,3.47875283,8.64625798,7.93351854,16.83803242,11.4736883,25.45894421,6.51522223,15.86642819,15.68944431,30.40116135,19.77163209,47.5118839,3.79928943,15.92469531,7.26771552,31.62069218-.09253303,47.40321572-5.02246469,10.76980318-11.44501801,19.38838428-24.16294269,19.43499798-3.20672474.01194476-6.45720225,1.51523646-9.60373297,2.61007565-17.29362195,6.01841086-35.23225757,2.96404841-52.84940544,4.38605748-1.458788.11828225-3.00372276-.04603103-4.42093204-.44137344-6.6940379-1.86629586-8.2611208-8.23430944-3.12193677-13.41658712,6.54606658-6.60166473,14.96779537-7.8142035,23.45691973-9.3469201,13.79897138-2.49208474,27.52891664-5.56013995,41.11782037-9.12870974,2.43262682-.63860764,4.99691959-4.54978809,5.86531696-7.50276575,3.34260291-11.36500181-.7935285-22.06167976-4.68317691-32.14713561-6.18109782-16.02724545-14.28446407-31.2075783-20.37234946-47.27007535-7.09678079-18.72355644-13.76011022-37.891691-10.09411727-58.82240596,4.61591721-26.35480118,16.11053075-38.33947382,39.00274082-41.76062779,17.87327821-2.67096479,29.51830889,10.24714711,36.09413278,26.93368502.45179491,1.14640559-.49432477,2.92646612-1.17792783,6.35665149Z"/>
</svg>
