<svg xmlns="http://www.w3.org/2000/svg" xmlns:xlink="http://www.w3.org/1999/xlink" width="60.859" height="61.081" viewBox="0 0 60.859 61.081">
  <defs>
    <clipPath id="clip-path">
      <rect id="Rectangle_30" data-name="Rectangle 30" width="60.859" height="61.081" fill="#c63636"/>
    </clipPath>
  </defs>
  <g id="Group_14" data-name="Group 14" transform="translate(0 0)">
    <g id="Group_13" data-name="Group 13" transform="translate(0 0)" clip-path="url(#clip-path)">
      <path id="Path_37" data-name="Path 37" d="M30.444.789c2.313,0,4.628-.252,6.941-.272s4.626.165,6.934.289c2.563.136,5.3.388,7.495,1.671a18.807,18.807,0,0,1,5.413,5.5,17.579,17.579,0,0,1,3.394,6.951,25.953,25.953,0,0,1-.107,4.008c.01,2.6-.487,5.192-.485,7.788s.832,5.191.831,7.786-.734,5.191-.735,7.787a19.462,19.462,0,0,1-.757,6.278,17.951,17.951,0,0,1-2.781,5.807,18.258,18.258,0,0,1-4.918,4.308,20.487,20.487,0,0,1-6.245,1.842c-1.009.18-2.1-.358-3.128-.356-1.978,0-3.955-.057-5.933-.056s-3.956.961-5.933.961-3.956-.9-5.934-.9-3.956.367-5.934.368c-2.12,0-4.314.168-6.185-.45-1.969-.65-3.259-2.581-4.842-3.831s-3.543-2.195-4.628-3.961A19.447,19.447,0,0,1,.853,46.518a18.129,18.129,0,0,1-.122-4c-.01-2-.668-4-.672-6s.69-4,.69-6.006-.5-4-.5-6S-.005,20.5,0,18.5a19.452,19.452,0,0,1,1.136-6.385c.728-2.031,2.627-3.371,4-4.972S7.506,3.407,9.4,2.376c1.808-.984,4.125-.8,6.306-1.146C17,1.028,18.25.161,19.561.153,21.374.141,23.191,0,25.005,0s3.63.433,5.444.433c0,.035,0,.322,0,.356m0,56.917V57.5c2.141,0,4.283.195,6.424.2s4.271-.612,6.411-.665a13.828,13.828,0,0,0,6.93-1.6,14.287,14.287,0,0,0,4.719-5.325A13.26,13.26,0,0,0,57.3,43.428c.031-2.141.556-4.278.572-6.42s-.807-4.286-.806-6.427.724-4.285.709-6.426-.292-4.281-.324-6.422a13.792,13.792,0,0,0-2.386-6.9,13.856,13.856,0,0,0-5.229-4.874A13.63,13.63,0,0,0,43,3.751c-2.1-.019-4.2-.617-6.3-.627s-4.206-.079-6.308-.079-4.2.963-6.3.973-4.211-.876-6.313-.856a14.6,14.6,0,0,0-7.124,2.36C8.484,6.8,7.129,8.866,5.854,11.024c-1.249,2.113-3.007,4.268-3.032,6.854-.02,2.1.812,4.211.8,6.314S3.33,28.4,3.331,30.5s-.286,4.206-.275,6.308.676,4.2.7,6.3c.024,2.6.083,5.2,1.31,7.314a15.019,15.019,0,0,0,5.594,4.948A14,14,0,0,0,17.7,57.126c2.126.046,4.241.084,6.366.077s4.253.5,6.379.5" transform="translate(0 0)" fill="#c63636"/>
      <path id="Path_38" data-name="Path 38" d="M35.4,50.53a14.588,14.588,0,0,1-7.446-1.87,14.838,14.838,0,0,1-5.478-5.441,15.121,15.121,0,0,1-2.319-7.474A15.09,15.09,0,0,1,22.477,28.3a15.149,15.149,0,0,1,5.364-5.6,14.718,14.718,0,0,1,7.52-1.65c2.05,0,4.089-.113,5.865.614a15.086,15.086,0,0,1,4.666,3.618A14.806,14.806,0,0,1,49.371,30a15.092,15.092,0,0,1,.784,5.8,14.934,14.934,0,0,1-1.637,7.563,15.171,15.171,0,0,1-5.571,5.484A14.975,14.975,0,0,1,35.4,50.53m.05-2.34A12.392,12.392,0,0,0,41.559,46.4,12.623,12.623,0,0,0,46.006,41.9a11.915,11.915,0,0,0,1.333-6.084,11.978,11.978,0,0,0-1.334-6.142,12.38,12.38,0,0,0-4.582-4.362,12.21,12.21,0,0,0-6.071-2c-2.189.012-4.134,1.12-5.916,2.169a12.484,12.484,0,0,0-4.721,4.136,12.142,12.142,0,0,0-1.381,6.152,12.453,12.453,0,0,0,1.34,6.218,12.6,12.6,0,0,0,4.751,4.22,12.125,12.125,0,0,0,6.027,1.979" transform="translate(-5.012 -5.233)" fill="#c63636"/>
      <path id="Path_39" data-name="Path 39" d="M61.211,20.789a2.7,2.7,0,0,1-2.762-2.841,2.791,2.791,0,0,1,2.781-2.806,2.851,2.851,0,0,1,2.821,2.874,2.735,2.735,0,0,1-2.84,2.773" transform="translate(-14.533 -3.765)" fill="#c63636"/>
    </g>
  </g>
</svg>
