<svg xmlns="http://www.w3.org/2000/svg" width="141.065" height="100.735" viewBox="0 0 141.065 100.735">
  <g id="Group_7" data-name="Group 7" transform="translate(-12221.799 -1278.564)">
    <path id="Path_24" data-name="Path 24" d="M84,390.754a12.534,12.534,0,0,1,.527-1.446c.731-1.533,2.169-1.846,3.291-.666a4.323,4.323,0,0,1,1.281,4.446c-.839,3.535-1.137,7.215-1.734,10.82-.675,4.081-1.412,8.15-2.159,12.218-.248,1.354-.832,1.806-1.967,1.839a1.774,1.774,0,0,1-1.842-1.711,13.056,13.056,0,0,1-.11-3.31c.225-2.521.568-5.029.9-7.846-.794.558-1.319.987-1.893,1.319a16.849,16.849,0,0,1-3.328,1.76c-2.2.668-2.974.214-4.18-1.884-1.766,2.582-3.47,5.24-5.344,7.753a23.5,23.5,0,0,1-3.99,4.383,54.6,54.6,0,0,1-6.787,4.485c-1.752,1.01-3.651.3-5.46-.075-3.687-.771-5.584-3.749-6.88-7.077-2.405-6.175-2.92-12.752-3.253-19.38a30.252,30.252,0,0,1,.39-7.8A38.818,38.818,0,0,1,44,379.976a7.649,7.649,0,0,1,8.219-4.472,5.1,5.1,0,0,1,3.551,1.9,15.729,15.729,0,0,1,.983,1.3A22.792,22.792,0,0,1,60,389.915c.008,1.091-.11,2.272-1.51,2.818a7.222,7.222,0,0,1-.814-1.272,43.773,43.773,0,0,1-2.057-5.8,9.993,9.993,0,0,0-2.333-4.251c-1.717-2.064-3.568-1.892-4.8.52a21.39,21.39,0,0,0-2.123,7.911,66.5,66.5,0,0,0,1.243,17.971,18.836,18.836,0,0,0,2.978,7.629c1.457,2.049,3.012,2.364,5.114,1.26,4.814-2.529,8.337-6.55,11.644-10.9a23.9,23.9,0,0,1,3.662-3.809A4.148,4.148,0,0,0,72.57,399.3c.716-4.045,2.755-7.092,6.5-8.338,1.392-.463,3.009-.151,4.922-.2M82.62,393.86c-4.525.353-7.207,4.651-6.145,9.438a4.62,4.62,0,0,0,2.955-2.55c.787-1.68,1.829-3.22,2.686-4.866a9.768,9.768,0,0,0,.5-2.022" transform="translate(12180.813 955.865)" fill="#fff"/>
    <path id="Path_25" data-name="Path 25" d="M110.627,398.751c.983-1.531,1.958-3.072,2.954-4.6a4.357,4.357,0,0,1,5.316-1.809c1.811.514,2.788,2.029,3.254,3.876a27.466,27.466,0,0,1,.5,6.357,23.032,23.032,0,0,1-1.5,8.347c-1.925,5.286-5.059,9.577-10.11,11.749a5.288,5.288,0,0,1-3.746-.315c-1.091-.456-1.2-1.906-1.2-3.135.02-5.241-.008-10.483.1-15.722.108-5.326.312-10.65.568-15.97a12.99,12.99,0,0,1,.822-3.667,1.65,1.65,0,0,1,1.338-.916c.417.059.929.75,1.076,1.269a10.874,10.874,0,0,1,.353,2.82c.042,3.8.025,7.609.044,11.413,0,.106.155.211.225.3m6.775-2.925c-1.557.131-2,1.4-2.536,2.5a36.628,36.628,0,0,0-3.616,11.917q-.391,3.544-.743,7.092a11.526,11.526,0,0,0,.09,1.525c.644-.592,1.023-.949,1.41-1.294A20.574,20.574,0,0,0,118.95,401.8c.029-2.148-.173-4.259-1.548-5.977" transform="translate(12165.924 954.144)" fill="#fff"/>
    <path id="Path_26" data-name="Path 26" d="M189.128,403.164c-.537.657-1.058,1.33-1.616,1.967a11.221,11.221,0,0,1-1.592,1.665c-3.108,2.323-6.627.635-7.329-3.4a18.8,18.8,0,0,1,1.366-10.469,44.907,44.907,0,0,1,2.805-5.406,7.481,7.481,0,0,1,5.435-3.791c1.165-.185,2.427.342,3.949.6.1-.113.4-.528.759-.889,1.567-1.587,3.642-1.054,4.166,1.167a9.112,9.112,0,0,1,.2,3.52c-.781,4.533-1.041,9.165-2.478,13.581a34.849,34.849,0,0,0-.858,5.83c-.279,1.965-.546,3.932-.877,5.887-.168.989-1.405,2.171-2.163,2.127-1.146-.068-1.578-.869-1.927-1.969a5.736,5.736,0,0,1-.008-3.492,30.475,30.475,0,0,0,.689-6.763l-.518-.164m2.141-15.45c-2.138-.224-3.923.308-4.775,1.587a22.591,22.591,0,0,0-4.029,11.317,2.407,2.407,0,0,0,1.049,2.534c4.266-4.138,5.19-10.1,7.755-15.437" transform="translate(12149.406 954.241)" fill="#fff"/>
    <path id="Path_27" data-name="Path 27" d="M216.84,382.916c-1.949-1.788-3.811-2.762-6.127-2.541s-3.293.925-3.767,3.264a12.516,12.516,0,0,0,.608,7.265c.7,1.738,1.594,3.385,2.306,5.117,1.309,3.189,3.153,6.111,3.973,9.549.764,3.2,1.461,6.356-.019,9.528-1.009,2.164-2.3,3.9-4.856,3.906a6.3,6.3,0,0,0-1.93.525c-3.476,1.209-7.082.6-10.622.882a2.582,2.582,0,0,1-.889-.089,1.5,1.5,0,0,1-.628-2.7c1.316-1.327,3.009-1.57,4.715-1.878q4.16-.752,8.264-1.835c.488-.128,1-.915,1.179-1.508.672-2.284-.16-4.435-.941-6.462-1.243-3.221-2.871-6.272-4.1-9.5-1.426-3.763-2.765-7.616-2.029-11.823.928-5.3,3.238-7.706,7.839-8.393,3.592-.537,5.933,2.06,7.255,5.413.091.23-.1.588-.237,1.277" transform="translate(12145.764 955.697)" fill="#fff"/>
    <path id="Path_28" data-name="Path 28" d="M130.632,401.018a4.238,4.238,0,0,0,1.439-2.763,16.8,16.8,0,0,1,2.964-7.132c.575-.7,1.1-.948,1.877-.612a4.546,4.546,0,0,1,4.918-3.681,7.6,7.6,0,0,1,5.955,4.48c.859,1.665-.121,5.427-1.677,7.033a19.178,19.178,0,0,1-9.716,5.331c-.357.083-.709.194-1.159.319-.281,2.62-.873,5.177-.417,7.813.437,2.532,1.619,3,3.483,1.323,2.427-2.185,4.789-4.455,7.208-6.651a12.19,12.19,0,0,1,2.7-2.068,2.337,2.337,0,0,1,2.036.287c.73.517.51,1.495.039,2.146-1.584,2.191-3.163,4.4-4.9,6.449a48.373,48.373,0,0,1-3.827,3.65,6.407,6.407,0,0,1-5.142,1.76c-3.244-.282-5.145-2.612-5.352-6.484-.114-2.125,0-4.263-.066-6.392-.046-1.469-.22-2.932-.369-4.807m5.463-1.157a20.345,20.345,0,0,0,6.794-4.65,2.1,2.1,0,0,0,.3-2.782c-.545-.9-1.45-1.088-2.563-.374-2.569,1.651-3.807,4.228-4.529,7.806" transform="translate(12160.315 953.263)" fill="#fff"/>
    <path id="Path_29" data-name="Path 29" d="M167.076,387.147c-1.753.16-3.274.219-4.77.462a3.93,3.93,0,0,1-3.172-.731c-1.4-1.058-1.324-2.3.218-3.041a8.167,8.167,0,0,1,2.324-.826,35.067,35.067,0,0,1,6.567-.643c2.815.143,4.237,2.329,3.656,5.264a34.185,34.185,0,0,1-1.414,4.218c-.2.6-.413,1.193-.562,1.805-.825,3.389-1.513,6.824-2.485,10.163-.726,2.493-1.81,4.867-2.736,7.292-.333.872-.67,1.742-1.224,3.18,1.134-.516,1.858-.789,2.534-1.164,2.24-1.243,4.458-2.529,6.693-3.78.393-.221.852-.556,1.232-.494a2.842,2.842,0,0,1,1.7.806c.241.3.074,1.164-.147,1.653a4.395,4.395,0,0,1-1.227,1.629,54.987,54.987,0,0,1-5.373,3.858c-2.653,1.574-5.416,2.939-8.153,4.343-1.039.533-2.159.842-3.078-.266a3.4,3.4,0,0,1-.538-3.547c2.03-5.633,4.1-11.252,6.007-16.934.848-2.532,1.282-5.221,2.009-7.8.384-1.361,1-2.646,1.5-3.971.133-.353.218-.727.436-1.473" transform="translate(12154.319 954.28)" fill="#fff"/>
    <path id="Path_30" data-name="Path 30" d="M69.493,319.694c-.759,4.526-2.68,8.784-2.677,13.5,0,3.493-.272,6.987-.384,10.482-.025.786.153,1.577.164,2.366a17.939,17.939,0,0,1-.1,3.084,1.9,1.9,0,0,1-1.662,1.784,2.184,2.184,0,0,1-2.279-1,36.413,36.413,0,0,1-2.209-3.951c-1.358-3.031-2.633-6.1-3.874-9.182a25.779,25.779,0,0,1-1.116-3.631c-.506-2.11-.632-2.383-2.481-3.942a4.4,4.4,0,0,0-.522,1.3c-.125,2.856-.353,5.722-.231,8.571.192,4.522.663,9.033.939,13.553a7.952,7.952,0,0,1-.384,2.816c-.378,1.2-1.576,1.359-2.073.227a38.794,38.794,0,0,1-2.077-6.079,46.147,46.147,0,0,1-1.474-7.724c-.268-3.533-.93-7.064-.137-10.662.423-1.921.425-3.888,1.391-5.727,1.8-3.42,5.309-4.344,8.38-1.955a12.209,12.209,0,0,1,3.825,6.183c.437,1.336.7,2.728,1.186,4.644.595-3.636,1.111-6.7,1.6-9.777.565-3.577,2.072-6.84,3.4-10.157a4.666,4.666,0,0,1,1.391-1.623c1.746-1.482,2.977-1.28,4.382.607a17.3,17.3,0,0,1,2.986,6.206,36.823,36.823,0,0,0,1.874,5.413c1.206,2.835,1.321,5.869,1.837,8.832,1.02,5.858,1.963,11.73,3.063,17.573.861,4.573,1.921,9.109,2.863,13.667a6.784,6.784,0,0,1,.153,2.109,2.229,2.229,0,0,1-2.152,1.921,2.045,2.045,0,0,1-2.3-1.334,33.719,33.719,0,0,1-1.51-4.769c-.838-3.872-1.546-7.773-2.3-11.664a6.36,6.36,0,0,0-.237-1.409c-1.382-3.014-1.257-6.321-1.871-9.481-1.23-6.336-1.9-12.786-3.956-18.949-.217-.652-.555-1.264-.836-1.894l-.587.073" transform="translate(12179.544 970.407)" fill="#fff"/>
    <path id="Path_31" data-name="Path 31" d="M141.738,354.117a14.027,14.027,0,0,1-.433-7.3c-2.256-2.843-5.162-4-8.259-4.9-3.051-.886-4.723.225-5.028,3.454-.276,2.928-.629,5.849-.962,8.772a2.651,2.651,0,0,1-.238.633c-2.195.487-2.923.106-3.023-1.963a61.554,61.554,0,0,1,.107-7.392,5.16,5.16,0,0,0-.7-3.156,22.438,22.438,0,0,1-1.726-3.662c-.825-2.314-.141-3.349,2.333-3.805.231-.043.46-.1.8-.184.62-2.978,1.159-6,1.9-8.977a41.72,41.72,0,0,1,2.118-6.55,6.982,6.982,0,0,1,5.355-4.307c3.183-.559,5.407.755,6.446,3.906a16.567,16.567,0,0,1-.488,10.956c-.947,2.668-1.58,5.513-4.147,7.584l6.712,3.051c.609-2.916,1.145-5.468,1.674-8.023q1.425-6.875,2.849-13.75c.18-.862.632-1.487,1.618-1.431,1.062.062,1.322.906,1.3,1.7-.084,2.465-.218,4.932-.464,7.386a46.629,46.629,0,0,1-.875,5.417c-1.219,5.507-1.527,11.144-2.448,16.69a22.579,22.579,0,0,1-1.3,4.583c-.654,1.651-1.253,1.8-3.121,1.264m-6.028-35.105c-.759.457-1.422.644-1.724,1.081a10.842,10.842,0,0,0-1.673,3.117c-.9,3.277-1.651,6.6-2.386,9.918a10.053,10.053,0,0,0-.024,2.212,1.371,1.371,0,0,0,2.03-.255,17.824,17.824,0,0,0,4.257-8.132,12.562,12.562,0,0,0-.481-7.943" transform="translate(12162.484 969.758)" fill="#fff"/>
    <path id="Path_32" data-name="Path 32" d="M195.853,319.875c-1.627,1.241-2.018,2.782-2.562,4.129a64.131,64.131,0,0,0-4.047,16.1c-.3,2.364-.35,4.759-.607,7.13-.292,2.69-.661,5.372-1.058,8.048a12,12,0,0,1-.691,2.029c-1.357-.466-1.372-1.514-1.419-2.39-.122-2.306-.238-4.625-.133-6.928.141-3.1.378-6.2.792-9.267a48.523,48.523,0,0,1,1.553-7.471c1.255-4.179,2.249-8.478,4.587-12.257a8.276,8.276,0,0,1,1.3-1.7,3.2,3.2,0,0,1,5.22.863,29.713,29.713,0,0,1,3.278,10.865c.345,2.987.592,5.984.89,8.977a2.467,2.467,0,0,0,.563,1.462c.41-1.408.909-2.8,1.213-4.228a37.613,37.613,0,0,1,4.438-10.772c.518-.909,1.158-2.013,2.336-1.587s1,1.7.8,2.717a34.829,34.829,0,0,1-.919,3.465c-.517,1.67-1.219,3.293-1.616,4.988a168.176,168.176,0,0,0-3.331,18.291c-.208,1.733-.362,3.48-.715,5.185-.228,1.1-.764,2.17-2.184,2.153a2.568,2.568,0,0,1-2.346-2.35q-.68-3.52-1.138-7.081-.71-5.431-1.279-10.88c-.359-3.4-.507-6.828-1-10.207-.443-3.032-1.228-6.015-1.919-9.291" transform="translate(12147.817 969.38)" fill="#fff"/>
    <path id="Path_33" data-name="Path 33" d="M108.342,342.269c-1.795,1.178-3.218,2.2-4.723,3.076a4.764,4.764,0,0,1-5.583-.352c-2.319-1.864-2.806-3.493-2.189-6.034,1.448-5.954,5.153-9.877,10.7-12.175a9.038,9.038,0,0,1,2.754-.528c1.421-.107,2.854-.046,4.279-.126.936-.052,1.685.3,1.828,1.17a20.375,20.375,0,0,1,.278,4.226c-.084,1.82-.386,3.632-.606,5.446-.191,1.574-.4,3.146-.6,4.719-.488,3.848-.946,7.7-1.477,11.54-.4,2.9-.892,5.793-1.361,8.686a2.126,2.126,0,0,1-.373,1.116,3.289,3.289,0,0,1-1.632,1.115c-.428.044-1.171-.583-1.357-1.07a8.345,8.345,0,0,1-.688-3.225c.234-5-.181-10.036.728-15.008a15.8,15.8,0,0,0,.019-2.576m-7.043-1.1a8.919,8.919,0,0,0,2.205-1.123,24.293,24.293,0,0,0,6.591-9.978c-5.359.207-10.477,6.485-8.8,11.1" transform="translate(12168.325 967.136)" fill="#fff"/>
    <path id="Path_34" data-name="Path 34" d="M169.655,346.721a19.565,19.565,0,0,0-1.8.8,5.83,5.83,0,0,1-8.462-2.8c-1.014-2.7-1.511-5.506.328-8.195a15.092,15.092,0,0,0,1.1-2.577c1.186-2.745,3.612-4.42,5.823-6.118a14.267,14.267,0,0,1,5.49-2.057c2.3-.521,4.052,1.064,5.864,2.14a1.961,1.961,0,0,1,.619,2.39c-1.565,5.234-1.7,10.791-3.75,15.94-.775,1.943-.7,4.222-1.044,6.343a29.983,29.983,0,0,1-.672,3.275c-.447,1.6-1.3,2.309-2.4,2.174a2.925,2.925,0,0,1-2.29-2.934c.143-2.034.477-4.056.752-6.08.093-.68.26-1.351.446-2.3m4.154-17.073a6.885,6.885,0,0,0-1.34.01c-4.1,1.126-8.413,6.116-9.144,10.771a5.993,5.993,0,0,0,.349,2.579c.329,1.064,1.15,1.264,2.045.546a7.019,7.019,0,0,0,1.261-1.423,63.224,63.224,0,0,1,3.713-5.228c1.813-2.056,2.155-4.6,3.117-7.255" transform="translate(12153.947 967.24)" fill="#fff"/>
    <path id="Path_35" data-name="Path 35" d="M159.013,307.073c2.032.022,3.605,1.361,3.6,3.065,0,1.42-1.556,2.622-3.418,2.644a3.334,3.334,0,0,1-3.329-2.787,3.105,3.105,0,0,1,3.145-2.922" transform="translate(12154.546 971.492)" fill="#fff"/>
  </g>
</svg>
