<svg id="Group_18" data-name="Group 18" xmlns="http://www.w3.org/2000/svg" xmlns:xlink="http://www.w3.org/1999/xlink" width="45.303" height="57.747" viewBox="0 0 45.303 57.747">
  <defs>
    <clipPath id="clip-path">
      <rect id="Rectangle_32" data-name="Rectangle 32" width="45.303" height="57.747" fill="#c63636"/>
    </clipPath>
  </defs>
  <g id="Group_17" data-name="Group 17" transform="translate(0 0)" clip-path="url(#clip-path)">
    <path id="Path_41" data-name="Path 41" d="M27.572,40.119a11.15,11.15,0,0,1,.541-1.155c.452-.74.981-1.436,1.411-2.188a1.489,1.489,0,0,1,1.709-.874,3.745,3.745,0,0,0,1.841-.242,5.155,5.155,0,0,1,4.394.72,5.094,5.094,0,0,1,1.878,3.449A7.2,7.2,0,0,0,40.7,42.58c1.413,2.107,2.959,4.125,4.338,6.254a2.1,2.1,0,0,1,.1,1.828,46.879,46.879,0,0,1-2.773,3.926,6.621,6.621,0,0,1-4.919,2.571,9.928,9.928,0,0,0-1.106.326,4.313,4.313,0,0,1-1.44.252,16.065,16.065,0,0,1-2.738-.6,48.664,48.664,0,0,1-17.376-9.15A29.611,29.611,0,0,1,7.068,37.712,81.845,81.845,0,0,1,.54,18.576,23.673,23.673,0,0,1,.978,6.738a28.8,28.8,0,0,1,1.6-3.512,1.084,1.084,0,0,1,.518-.439C4.922,1.958,6.737,1.095,8.6.346c2.024-.813,3.876-.07,5.62.922a1.79,1.79,0,0,1,.638,1.169c.616,3.68,1.943,6.857,5.54,8.646,1.718.855,1.664,1.617.59,3.218a7.891,7.891,0,0,0-1.065,3.462c-.195,1.807-.531,2.221-2.35,2.155-1.239-.046-2.481,0-3.721-.021-.532-.008-.754.254-1.056.7-2.079,3.041-.926,6.08.23,8.9,2.1,5.142,6.208,8.365,11.239,10.474a3.67,3.67,0,0,0,1.276.141c.683.021,1.369.006,2.034.006M6.056,5.667c.482,1.579.3,2.24-1.116,3.084a5.229,5.229,0,0,0-2.7,4.124,27.591,27.591,0,0,0,.136,6.782A58.654,58.654,0,0,0,7.437,34.848c1.972,4.157,4.234,8.163,8.062,10.985,4.968,3.663,10.17,6.817,16.445,7.7,1.375.193,2.6.6,4.133.059A9.389,9.389,0,0,0,41.378,49a1.5,1.5,0,0,0-.007-1.265,32.98,32.98,0,0,0-2.477-3.65,10.663,10.663,0,0,1-2.527-4.614.946.946,0,0,0-.484-.641,3.3,3.3,0,0,0-3.709,1.325c-.45.661-.793,1.4-1.224,2.07a3.587,3.587,0,0,1-5.265,1.292c-1.83-1.049-3.673-2.077-5.461-3.194a22.4,22.4,0,0,1-9.161-10.266,79.871,79.871,0,0,1-2.59-8.213,7.444,7.444,0,0,1-.251-1.785,2.1,2.1,0,0,1,2.659-2.33,1.674,1.674,0,0,0,.672-.027c1.14-.26,2.27-.567,3.415-.8a2.456,2.456,0,0,0,2.107-1.864c.207-.773.483-1.53.766-2.281a1.178,1.178,0,0,0-.322-1.438A20.452,20.452,0,0,1,12.593,4.3a1.238,1.238,0,0,0-1.339-.781c-2.062.006-3.493,1.39-5.2,2.149" transform="translate(0 0)" fill="#c63636"/>
  </g>
</svg>
