<svg id="Group_20" data-name="Group 20" xmlns="http://www.w3.org/2000/svg" xmlns:xlink="http://www.w3.org/1999/xlink" width="85.434" height="55.041" viewBox="0 0 85.434 55.041">
  <defs>
    <clipPath id="clip-path">
      <rect id="Rectangle_33" data-name="Rectangle 33" width="85.434" height="55.041" fill="#c63636"/>
    </clipPath>
  </defs>
  <g id="Group_19" data-name="Group 19" clip-path="url(#clip-path)">
    <path id="Path_42" data-name="Path 42" d="M59.282.049c3.235-.083,6.9-.074,10.119.146C80.524.956,83.827,12.62,84.951,21.907c2.093,17.3-2.306,26.24-19.159,31.281-9.843,2.944-19.914,1.669-29.988.966-8.206-.572-24.283-1.042-29.932-7.737C.034,39.5-.491,27.4.276,18.826,1.452,5.686,11.512,7.021,21.692,5.219,34.608,2.934,45.93.393,59.282.049m8.8,1.978a75.437,75.437,0,0,0-13.033.1l8.868.314Zm7.87,2.513a11.662,11.662,0,0,0-1.33-1.011c-.173-.114-.454-.5-.633-.181,2.413,2.345,3.5,5.65,4.421,8.815,2.2,7.557,4.085,19.51,1.944,27.077l-1.989,5.341c6.884-7.08,5.694-18.984,3.912-27.937a22.306,22.306,0,0,0-6.324-12.1m-4.877-.816c-2.769-.084-6.148.533-8.992.553-.751.005-1.407-.228-2.035-.224a227.178,227.178,0,0,0-39.854,3.33C13.975,8.528,4.542,9.745,3.932,17.6a41.993,41.993,0,0,0,6.721,25.669c5.163,7.717,10.319,7.456,18.832,7.418,10.633-.048,21.192.2,31.771-.808,9.7-.929,15.518-2,17.724-12.615,1.5-7.238-.886-25.314-5.237-31.428-.626-.88-1.479-2.07-2.671-2.106M12.695,48.652A38.213,38.213,0,0,1,5.066,36.43a36.149,36.149,0,0,1-2.78-12.491l-.38-1.551c-.081,4.779-.187,9.213,1.118,13.845,1.442,5.119,4.043,10.943,9.671,12.419M65.636,51.1a168.937,168.937,0,0,1-23.73,1.432c-1.206-.032-2.337-.265-3.659-.212-.248.01-.757-.154-.71.2a131.676,131.676,0,0,0,14.77.6,49.976,49.976,0,0,0,5.079.006,37.049,37.049,0,0,0,7.594-1.569c.259-.1.6-.12.655-.463" transform="translate(0 0)" fill="#c63636"/>
    <path id="Path_43" data-name="Path 43" d="M141.912,108.131c-.049-.023-.048-.284-.216-.32-.519-.112-1.466.192-1.757-.46A129.8,129.8,0,0,0,135.573,87.9c-.07-2.159,3.205-.45,3.413-.655.133-.754-.8-1.033-.8-1.73,0-.631.9-1.546,1.553-1.177,5.118,3.882,11.68,4.818,17.3,7.759,1.961,1.026,3.692,2.436,5.572,3.591.834,1.628,4.229,3.812,1.211,5.095-4.137,1.758-9.575,2.42-13.695,4.02-1.891.734-5.644,3.7-7.372,3.628a1.741,1.741,0,0,1-.847-.3m-2.558-18.812c-.053-.07-1.782-.745-1.583-.154l2.639,9.477c-.306-2.186-.343-4.426-.611-6.614a25.619,25.619,0,0,0-.445-2.709m21.623,7.9c-5.135-5.255-12.893-5.956-19.75-7.326l1.834,15.268c2.069-1.052,4.558-1.329,6.656-2.2.82-.34,1.863-1.154,2.7-1.571,2.842-1.409,5.649-2.9,8.556-4.172m1.832,2.037-.3-.625-.315-.1-3.248,1.744Z" transform="translate(-107.967 -67.094)" fill="#c63636"/>
  </g>
</svg>
